<svg width="23" height="31" viewBox="0 0 23 31" fill="none" xmlns="http://www.w3.org/2000/svg">
<path d="M11.5 30.7457C11.2527 30.7457 11.0054 30.6219 10.7581 30.4981C2.84409 21.7066 1.11291 17.1251 0.989251 17.0013C0.247316 15.5154 0 13.9056 0 12.1721C0 5.85709 5.19355 0.656494 11.5 0.656494C17.8065 0.656494 23 5.85709 23 12.1721C23 13.7818 22.629 15.3915 21.8871 17.0013C21.7634 17.2489 20.1559 21.8304 12.1183 30.4981C11.9946 30.6219 11.7473 30.7457 11.5 30.7457ZM2.84409 16.3821C3.0914 17.1251 5.0699 21.2113 11.5 28.3931C17.9301 21.0874 19.9086 17.0013 20.1559 16.3821C20.1559 16.3821 20.1559 16.2583 20.2796 16.2583C20.8979 14.8962 21.2688 13.5342 21.2688 12.1721C21.2688 6.84768 16.9409 2.51385 11.6237 2.51385C6.30645 2.51385 1.97849 6.84768 1.97849 12.1721C1.97849 13.658 2.34946 15.0201 2.96774 16.2583C2.84409 16.2583 2.84409 16.2583 2.84409 16.3821Z" fill="#A6A7F6"/>
<path d="M11.5002 17.3727C8.90342 17.3727 6.80127 15.2677 6.80127 12.6674C6.80127 10.067 8.90342 7.96204 11.5002 7.96204C14.097 7.96204 16.1991 10.067 16.1991 12.6674C16.1991 15.2677 14.097 17.3727 11.5002 17.3727ZM11.5002 9.8194C9.89267 9.8194 8.65611 11.0576 8.65611 12.6674C8.65611 14.2771 9.89267 15.5153 11.5002 15.5153C13.1077 15.5153 14.3443 14.2771 14.3443 12.6674C14.3443 11.0576 13.1077 9.8194 11.5002 9.8194Z" fill="#A6A7F6"/>
</svg>
