<svg width="31" height="25" viewBox="0 0 31 25" fill="none" xmlns="http://www.w3.org/2000/svg">
<path d="M26.8667 24.6565H4.13333C1.83704 24.6565 0 22.817 0 20.5175V4.30665C0 2.00723 1.83704 0.167725 4.13333 0.167725H26.8667C29.163 0.167725 31 2.00723 31 4.30665V20.5175C31 22.817 29.163 24.6565 26.8667 24.6565ZM4.13333 2.00723C2.87037 2.00723 1.72222 3.04198 1.72222 4.42163V20.6325C1.72222 21.8972 2.75555 23.0469 4.13333 23.0469H26.8667C28.1296 23.0469 29.2778 22.0122 29.2778 20.6325V4.42163C29.2778 3.15695 28.2444 2.00723 26.8667 2.00723H4.13333Z" fill="#A6A7F6"/>
<path d="M15.5 13.2744C15.3852 13.2744 15.2704 13.2743 15.0407 13.1594L0.459262 5.11141C2.60053e-06 4.88147 -0.114816 4.30662 0.114814 3.9617C0.344444 3.61679 0.918518 3.38686 1.26296 3.61681L15.5 11.4348L29.737 3.61681C30.1963 3.38686 30.6556 3.50182 30.8852 3.9617C31.1148 4.42159 31 4.88147 30.5407 5.11141L15.8444 13.1594C15.8444 13.2743 15.7296 13.2744 15.5 13.2744Z" fill="#A6A7F6"/>
</svg>
