<svg width="90" height="105" viewBox="0 0 90 105" fill="none" xmlns="http://www.w3.org/2000/svg">
<path fill-rule="evenodd" clip-rule="evenodd" d="M6.33959 12.6792C4.26441 12.6792 2.53931 14.4043 2.53931 16.4795V98.564C2.53931 100.639 4.26441 102.364 6.33959 102.364H45.6919C47.7671 102.364 49.4922 100.639 49.4922 98.564V61.9881C49.4922 61.2869 50.0606 60.7185 50.7618 60.7185C51.463 60.7185 52.0315 61.2869 52.0315 61.9881V98.564C52.0315 102.042 49.1695 104.904 45.6919 104.904H6.33959C2.86198 104.904 0 102.042 0 98.564V16.4795C0 13.0019 2.86198 10.1399 6.33959 10.1399H18.2901C18.9913 10.1399 19.5598 10.7083 19.5598 11.4095C19.5598 12.1108 18.9913 12.6792 18.2901 12.6792H6.33959Z" fill="#3624B5"/>
<path fill-rule="evenodd" clip-rule="evenodd" d="M44.543 11.4095C44.543 10.7083 45.1114 10.1399 45.8126 10.1399C49.2902 10.1399 52.1522 13.0019 52.1522 16.4795C52.1522 17.1807 51.5838 17.7491 50.8826 17.7491C50.1813 17.7491 49.6129 17.1807 49.6129 16.4795C49.6129 14.4043 47.8878 12.6792 45.8126 12.6792C45.1114 12.6792 44.543 12.1108 44.543 11.4095Z" fill="#5D5FEF"/>
<path d="M39.5356 59.091C34.9485 59.091 31.0857 55.9524 29.9993 51.7275C29.7579 50.8825 29.6371 50.1582 29.6371 49.1925V37.242V15.9966C29.6371 10.5645 34.1035 6.09814 39.5356 6.09814H65.7302H78.7672H79.4915C84.9235 6.09814 89.3899 10.5645 89.3899 15.9966V49.1925C89.3899 54.6246 84.9235 59.091 79.4915 59.091H61.5053L45.2091 75.3872V59.091H39.5356Z" fill="#F2F2F2"/>
<path fill-rule="evenodd" clip-rule="evenodd" d="M19.6762 97.1156C19.6762 96.4144 20.2447 95.8459 20.9459 95.8459H31.2064C31.9076 95.8459 32.4761 96.4144 32.4761 97.1156C32.4761 97.8168 31.9076 98.3853 31.2064 98.3853H20.9459C20.2447 98.3853 19.6762 97.8168 19.6762 97.1156Z" fill="#3624B5"/>
<path fill-rule="evenodd" clip-rule="evenodd" d="M0 20.5212H23.8429C24.5441 20.5212 25.1126 21.0897 25.1126 21.7909C25.1126 22.4921 24.5441 23.0606 23.8429 23.0606H2.53931V89.6896H49.4922V59.2118C49.4922 58.5106 50.0606 57.9421 50.7618 57.9421C51.463 57.9421 52.0315 58.5106 52.0315 59.2118V92.2289H0V20.5212Z" fill="#3624B5"/>
<path fill-rule="evenodd" clip-rule="evenodd" d="M33.7413 2.53931C29.0105 2.53931 25.1126 6.43723 25.1126 11.1681V44.3641C25.1126 45.1986 25.213 45.8053 25.4258 46.5502L25.4305 46.5665L25.4347 46.5828C26.3796 50.2575 29.7448 52.9928 33.7413 52.9928H40.6845V67.4935L55.1851 52.9928H73.6972C78.4281 52.9928 82.326 49.0949 82.326 44.3641V11.1681C82.326 6.43723 78.4281 2.53931 73.6972 2.53931H33.7413ZM22.5732 11.1681C22.5732 5.03481 27.6081 0 33.7413 0H73.6972C79.8305 0 84.8653 5.03481 84.8653 11.1681V44.3641C84.8653 50.4973 79.8305 55.5321 73.6972 55.5321H56.2369L38.1452 73.6239V55.5321H33.7413C28.5696 55.5321 24.2134 51.9986 22.9796 47.2317C22.7126 46.2932 22.5732 45.4547 22.5732 44.3641V11.1681Z" fill="#5D5FEF"/>
<path d="M53.7797 42.4327C53.7797 42.4327 73.2144 31.81 67.2995 22.8773C61.9881 14.7896 53.7797 20.463 53.7797 20.463C53.7797 20.463 45.5712 14.7896 40.2599 22.8773C34.345 31.81 53.7797 42.4327 53.7797 42.4327Z" fill="#5D5FEF"/>
</svg>
