<svg width="123" height="90" viewBox="0 0 123 90" fill="none" xmlns="http://www.w3.org/2000/svg">
<g clip-path="url(#clip0_413_2534)">
<path d="M102.283 4.87451H85.8277H74.4629C73.6343 4.87451 72.924 5.58785 72.924 6.42009V18.0713C72.924 18.0713 72.924 41.7305 72.924 54.4518V59.4452C72.924 60.2774 73.6343 60.9908 74.4629 60.9908H79.6718H108.439H113.648C114.476 60.9908 115.187 60.2774 115.187 59.4452V54.4518V18.0713L102.283 4.87451Z" fill="#F2F2F2"/>
<path d="M55.2848 55.6406H18.9412C17.1655 55.6406 15.7449 57.0673 15.7449 58.8507V86.7899L58.5995 87.9788V58.9696C58.4812 57.1862 57.0606 55.6406 55.2848 55.6406Z" fill="#F2F2F2"/>
<path d="M59.7833 89.4059L14.4426 88.0981V58.97C14.4426 56.4733 16.4551 54.4521 18.9412 54.4521H55.2848C57.7708 54.4521 59.7833 56.4733 59.7833 58.97V89.4059ZM16.9287 85.7203L57.2973 86.7903V58.97C57.2973 57.9 56.3502 56.9488 55.2848 56.9488H18.9412C17.8757 56.9488 16.9287 57.9 16.9287 58.97V85.7203Z" fill="#3624B5"/>
<path d="M55.1665 88.2171V74.188L42.3811 60.9912H25.9258H14.5611C13.7324 60.9912 13.0221 61.7046 13.0221 62.5368V74.188C13.0221 74.188 13.0221 75.6147 13.0221 88.2171" fill="#F2F2F2"/>
<path d="M55.1665 89.5251C54.4562 89.5251 53.8642 88.9306 53.8642 88.2173V74.6638L41.7892 62.2992H14.5611C14.4427 62.2992 14.2059 62.4181 14.2059 62.6559V88.3362C14.2059 89.0495 13.614 89.644 12.9037 89.644C12.1934 89.644 11.8383 88.9306 11.8383 88.2173V62.537C11.8383 60.9914 13.1405 59.6836 14.6794 59.6836H42.973L56.4687 73.7127V88.3362C56.4687 88.9306 55.8768 89.5251 55.1665 89.5251Z" fill="#3624B5"/>
<path d="M42.3811 60.9912L55.1665 74.188H44.512C43.3282 74.188 42.4995 73.2369 42.4995 72.1669L42.3811 60.9912Z" fill="#F2F2F2"/>
<path d="M55.1665 75.3771H44.512C42.7362 75.3771 41.1973 73.8315 41.1973 72.0481V60.9913C41.1973 60.5158 41.5524 60.0402 42.0259 59.8024C42.4995 59.5646 43.0914 59.6835 43.4465 60.0402L56.2319 73.237C56.5871 73.5937 56.7054 74.1882 56.4687 74.5448C56.1135 75.0204 55.64 75.3771 55.1665 75.3771ZM43.6833 64.0825V72.0481C43.6833 72.5237 44.0385 72.8804 44.512 72.8804H52.2069L43.6833 64.0825Z" fill="#3624B5"/>
<path d="M62.8614 10.7005H30.4244C29.7141 10.7005 29.1222 10.1061 29.1222 9.39275C29.1222 8.67941 29.7141 8.08496 30.4244 8.08496H62.8614C63.5717 8.08496 64.1636 8.67941 64.1636 9.39275C64.1636 10.1061 63.5717 10.7005 62.8614 10.7005Z" fill="#3624B5"/>
<path d="M118.265 25.7996C117.554 25.7996 116.962 25.2052 116.962 24.4918V14.8617C116.962 12.6028 115.068 10.7005 112.819 10.7005H107.255C106.545 10.7005 105.953 10.1061 105.953 9.39275C105.953 8.67941 106.545 8.08496 107.255 8.08496H112.819C116.489 8.08496 119.448 11.0572 119.448 14.7428V24.3729C119.448 25.3241 118.975 25.7996 118.265 25.7996Z" fill="#3624B5"/>
<path d="M114.003 90.0009H9.70736C6.74779 90.0009 4.38013 87.6231 4.38013 84.6508V46.0114C4.38013 45.2981 4.97204 44.7037 5.68234 44.7037C6.39264 44.7037 6.98455 45.2981 6.98455 46.0114V84.5319C6.98455 86.0775 8.28677 87.3853 9.82575 87.3853H114.121C115.779 87.3853 117.081 86.0775 117.081 84.413V23.0656C117.081 22.3523 117.673 21.7578 118.383 21.7578C119.093 21.7578 119.685 22.3523 119.685 23.0656V84.5319C119.448 87.5042 117.081 90.0009 114.003 90.0009Z" fill="#3624B5"/>
<path d="M118.265 19.974H111.517C110.807 19.974 110.215 19.3795 110.215 18.6662C110.215 17.9528 110.807 17.3584 111.517 17.3584H118.265C118.975 17.3584 119.567 17.9528 119.567 18.6662C119.448 19.3795 118.975 19.974 118.265 19.974Z" fill="#3624B5"/>
<path d="M62.8614 19.974H4.38013V14.9806C4.38013 11.295 7.3397 8.32275 11.0096 8.32275H22.8479C23.5582 8.32275 24.1501 8.91721 24.1501 9.63055C24.1501 10.3439 23.5582 10.7006 22.8479 10.7006H11.0096C8.7603 10.7006 6.86617 12.6028 6.86617 14.8617V17.3584H62.8614C63.5717 17.3584 64.1636 17.9529 64.1636 18.6662C64.0452 19.3796 63.5717 19.974 62.8614 19.974Z" fill="#3624B5"/>
<path d="M14.206 15.4559H11.7199C11.0096 15.4559 10.4177 14.8615 10.4177 14.1481C10.4177 13.4348 11.0096 12.8403 11.7199 12.8403H14.206C14.9163 12.8403 15.5082 13.4348 15.5082 14.1481C15.5082 14.8615 14.9163 15.4559 14.206 15.4559Z" fill="#3624B5"/>
<path d="M21.0721 15.4559H18.7044C17.9941 15.4559 17.4022 14.8615 17.4022 14.1481C17.4022 13.4348 17.9941 12.8403 18.7044 12.8403H21.0721C21.7824 12.8403 22.3743 13.4348 22.3743 14.1481C22.3743 14.8615 21.7824 15.4559 21.0721 15.4559Z" fill="#3624B5"/>
<path d="M109.978 58.6134H70.9114C69.3724 58.6134 68.0702 57.3056 68.0702 55.7601V2.85386C68.0702 1.30828 69.3724 0.000488281 70.9114 0.000488281H99.2049L112.701 13.9107V55.879C112.819 57.4245 111.517 58.6134 109.978 58.6134ZM70.9114 2.49719C70.793 2.49719 70.5562 2.61608 70.5562 2.85386V55.879C70.5562 55.9978 70.6746 56.2356 70.9114 56.2356H109.978C110.096 56.2356 110.215 56.1167 110.215 55.9978V14.9807L98.1395 2.49719H70.9114Z" fill="#3624B5"/>
<path d="M111.517 89.2866C110.806 89.2866 110.215 88.6922 110.215 87.9788V65.2708C110.215 64.2008 109.267 63.2496 108.202 63.2496H71.9768C70.9114 63.2496 69.9643 64.2008 69.9643 65.2708V88.0977C69.9643 88.8111 69.3724 89.4055 68.6621 89.4055C67.9518 89.4055 67.4783 88.8111 67.4783 88.0977V65.2708C67.4783 62.7741 69.4908 60.7529 71.9768 60.7529H108.32C110.806 60.7529 112.819 62.7741 112.819 65.2708V88.0977C112.819 88.8111 112.227 89.2866 111.517 89.2866Z" fill="#3624B5"/>
<path d="M98.7314 1.30811L111.517 14.5049H100.862C99.6785 14.5049 98.8498 13.5538 98.8498 12.4838L98.7314 1.30811Z" fill="#F2F2F2"/>
<path d="M111.517 15.6939H100.862C99.0866 15.6939 97.5476 14.1484 97.5476 12.365V1.30822C97.5476 0.832655 97.9028 0.357094 98.3763 0.119313C98.8498 -0.118468 99.4417 0.000422709 99.7969 0.357094L112.464 13.5539C112.819 13.9106 112.937 14.505 112.701 14.8617C112.464 15.3373 111.99 15.6939 111.517 15.6939ZM100.034 4.28048V12.2461C100.034 12.7217 100.389 13.0784 100.862 13.0784H108.557L100.034 4.28048Z" fill="#3624B5"/>
<path d="M91.7468 12.9595H75.1732V15.8128H91.7468V12.9595Z" fill="#5D5FEF"/>
<path d="M102.165 69.5516H96.4822C95.7719 69.5516 95.2983 69.0761 95.2983 68.3627C95.2983 67.6494 95.7719 67.1738 96.4822 67.1738H102.165C102.875 67.1738 103.348 67.6494 103.348 68.3627C103.348 69.0761 102.756 69.5516 102.165 69.5516Z" fill="#3624B5"/>
<path d="M106.189 75.1395H94.9431C94.2328 75.1395 93.7593 74.664 93.7593 73.9506C93.7593 73.2373 94.2328 72.7617 94.9431 72.7617H106.189C106.9 72.7617 107.373 73.2373 107.373 73.9506C107.373 74.664 106.9 75.1395 106.189 75.1395Z" fill="#3624B5"/>
<path d="M105.124 34.9537H74.3445V22.708H76.8305V32.457H105.124V34.9537Z" fill="#3624B5"/>
<path d="M77.1857 32.8141C76.8305 32.8141 76.4754 32.6952 76.2386 32.3386C75.7651 31.7441 75.8835 31.0308 76.4754 30.5552L81.5658 26.5129L83.3416 28.1774L87.9585 24.254L90.2078 26.9885L95.6534 22.3518L98.8498 25.9185L104.177 21.7573C104.769 21.2817 105.479 21.4006 105.953 21.9951C106.426 22.5895 106.308 23.3029 105.716 23.7784L98.4946 29.3663L95.2983 25.7996L89.971 30.4363L87.7218 27.8207L83.2232 31.6252L81.4475 29.8419L78.0143 32.5763C77.7776 32.6952 77.4224 32.8141 77.1857 32.8141Z" fill="#5D5FEF"/>
<path d="M105.124 51.5992H74.3445V39.3535H76.8305V49.1025H105.124V51.5992Z" fill="#3624B5"/>
<path d="M77.1857 49.4587C76.8305 49.4587 76.4754 49.3398 76.2386 48.9831C75.7651 48.3886 75.8835 47.6753 76.4754 47.1997L81.5658 43.1575L83.3416 44.8219L87.3666 41.3741H92.1019L95.2983 39.353L100.27 39.7097L104.651 38.0452C105.242 37.8074 105.953 38.1641 106.308 38.7585C106.545 39.353 106.19 40.0663 105.598 40.423L100.626 42.3252L95.8902 41.9686L92.9306 43.9897H88.3137L83.2232 48.2698L81.4475 46.4864L78.0143 49.2209C77.7776 49.3398 77.4224 49.4587 77.1857 49.4587Z" fill="#5D5FEF"/>
<path d="M53.9827 42.9196H7.6949C3.43311 42.9196 0 39.4718 0 35.1917V30.0794C0 25.7994 3.43311 22.3516 7.6949 22.3516H54.1011C58.3629 22.3516 61.796 25.7994 61.796 30.0794V35.1917C61.6776 39.4718 58.2445 42.9196 53.9827 42.9196ZM7.6949 24.9672C4.85371 24.9672 2.48604 27.345 2.48604 30.1983V35.3106C2.48604 38.164 4.85371 40.5418 7.6949 40.5418H54.1011C56.9423 40.5418 59.3099 38.164 59.3099 35.3106V30.1983C59.3099 27.345 56.9423 24.9672 54.1011 24.9672H7.6949Z" fill="#5D5FEF"/>
<path d="M10.4177 34.7164C9.23391 34.7164 8.28684 33.8842 8.16846 32.6953C8.16846 31.5064 9.11552 30.5552 10.181 30.5552C11.3648 30.5552 12.3119 31.3875 12.3119 32.5764C12.4302 33.7653 11.6016 34.7164 10.4177 34.7164ZM15.745 31.7441C15.745 31.5064 15.6266 31.2686 15.6266 30.9119C15.6266 30.793 15.6266 30.793 15.5082 30.793C15.1531 30.793 14.7979 30.793 14.4428 30.6741C14.4428 30.6741 14.3244 30.6741 14.3244 30.5552C14.3244 30.4364 14.206 30.3175 14.206 30.3175V30.1986C14.3244 29.9608 14.5611 29.6041 14.7979 29.2474V29.1286C14.5611 28.8908 14.3244 28.653 14.0876 28.4152C14.0876 28.4152 13.9692 28.2963 13.8508 28.4152C13.4957 28.5341 13.2589 28.7719 12.9038 28.8908C12.7854 28.8908 12.7854 28.8908 12.667 28.8908C12.5486 28.8908 12.5486 28.7719 12.4302 28.7719C12.3119 28.7719 12.3119 28.653 12.3119 28.5341C12.3119 28.1774 12.3119 27.8208 12.3119 27.4641C12.3119 27.3452 12.3119 27.3452 12.1935 27.3452C11.8383 27.2263 11.6016 27.2263 11.2464 27.1074C11.2464 27.1074 11.128 27.1074 11.128 27.2263C11.0097 27.4641 10.7729 27.8208 10.6545 28.1774C10.5361 28.1774 10.5361 28.2963 10.5361 28.2963C10.4177 28.2963 10.2994 28.2963 10.181 28.2963C10.0626 28.2963 10.0626 28.2963 10.0626 28.1774C9.58906 27.8208 9.47067 27.583 9.23391 27.3452C9.23391 27.2263 9.11552 27.2263 8.99714 27.3452C8.64199 27.4641 8.40523 27.583 8.05008 27.7019C7.93169 27.7019 7.93169 27.8208 7.93169 27.8208C7.93169 28.1774 7.93169 28.5341 8.05008 28.8908C8.05008 29.0097 8.05008 29.0097 7.93169 29.0097C7.81331 29.0097 7.69493 29.1286 7.69493 29.2474C7.69493 29.2474 7.57655 29.2474 7.45816 29.2474C7.10301 29.1286 6.86625 29.0097 6.5111 28.8908C6.39271 28.8908 6.39271 28.8908 6.27433 28.8908C6.03757 29.1286 5.91918 29.3663 5.68242 29.6041C5.68242 29.6041 5.68242 29.723 5.68242 29.8419C5.91918 30.0797 6.03757 30.4364 6.27433 30.6741C6.27433 30.6741 6.27433 30.793 6.27433 30.9119C6.27433 31.0308 6.15595 31.1497 6.15595 31.2686C6.15595 31.3875 6.03756 31.3875 6.03756 31.3875C5.68242 31.3875 5.32727 31.5064 4.97212 31.6253C4.97212 31.6253 4.85373 31.6253 4.85373 31.7441C4.85373 31.9819 4.85373 32.2197 4.73535 32.4575C4.73535 32.5764 4.73535 32.5764 4.73535 32.6953V32.8142C4.85373 32.8142 4.85373 32.8142 4.97212 32.9331C5.20888 33.0519 5.56403 33.1708 5.8008 33.2897L5.91918 33.4086C5.91918 33.5275 5.91918 33.7653 6.03756 33.8842V34.0031C5.91918 34.122 5.8008 34.2408 5.56403 34.3597C5.44565 34.4786 5.32727 34.5975 5.20888 34.7164V34.8353C5.32727 35.0731 5.44565 35.4297 5.68242 35.6675L5.8008 35.7864C6.03757 35.7864 6.15595 35.6675 6.39271 35.6675C6.5111 35.6675 6.62948 35.6675 6.86625 35.5486C6.98463 35.5486 6.98463 35.5486 7.10301 35.5486C7.10301 35.6675 7.2214 35.7864 7.33978 35.9053C7.33978 35.9053 7.45816 36.0242 7.33978 36.1431C7.2214 36.4998 7.2214 36.8564 7.10301 37.2131C7.10301 37.332 7.10301 37.332 7.2214 37.332C7.45816 37.4509 7.69493 37.5698 8.05008 37.8076H8.16846C8.40523 37.5698 8.64199 37.332 8.87876 37.0942C8.87876 37.0942 8.99714 36.9753 9.11552 37.0942C9.23391 37.0942 9.47067 37.2131 9.58906 37.2131C9.70744 37.2131 9.70744 37.2131 9.70744 37.332C9.82582 37.6887 9.94421 38.0453 10.0626 38.2831C10.0626 38.402 10.181 38.402 10.181 38.402C10.4177 38.402 10.6545 38.402 10.8913 38.402C11.0097 38.402 11.0097 38.402 11.128 38.402C11.2464 38.402 11.2464 38.402 11.2464 38.2831C11.2464 38.0453 11.3648 37.9264 11.3648 37.6887C11.3648 37.5698 11.3648 37.4509 11.4832 37.2131C11.4832 37.2131 11.4832 37.0942 11.6016 37.0942C11.72 37.0942 11.9567 36.9753 12.0751 36.9753H12.1935C12.4303 37.0942 12.667 37.332 12.7854 37.4509L12.9038 37.5698H13.0222C13.2589 37.332 13.4957 37.2131 13.7325 36.9753C13.7325 36.9753 13.8508 36.8564 13.7325 36.7375C13.6141 36.3809 13.4957 36.0242 13.3773 35.7864V35.6675C13.4957 35.5486 13.4957 35.4297 13.6141 35.3109L13.7325 35.192C14.0876 35.192 14.4428 35.3109 14.7979 35.3109C14.9163 35.3109 14.9163 35.3109 14.9163 35.192C15.0347 34.8353 15.1531 34.5975 15.2714 34.2408C15.2714 34.122 15.2714 34.122 15.2714 34.122C15.0347 33.8842 14.6795 33.7653 14.4428 33.5275C14.3244 33.5275 14.3244 33.4086 14.3244 33.2897C14.3244 33.1708 14.3244 33.0519 14.3244 32.9331C14.3244 32.8142 14.3244 32.8142 14.4428 32.8142C14.6795 32.6953 15.0347 32.5764 15.3898 32.3386C15.3898 32.3386 15.5082 32.3386 15.5082 32.2197C15.8634 31.863 15.745 31.863 15.745 31.7441Z" fill="#5D5FEF"/>
<path d="M50.9047 29.7227H21.0721V32.2194H50.9047V29.7227Z" fill="#3624B5"/>
<path d="M44.3936 33.8838H21.0721V36.3805H44.3936V33.8838Z" fill="#3624B5"/>
<path d="M82.0395 67.6484C77.0674 67.6484 72.924 71.6907 72.924 76.803C72.924 81.7964 76.949 85.9576 82.0395 85.9576C87.0115 85.9576 91.1549 81.9153 91.1549 76.803C91.1549 71.6907 87.1299 67.6484 82.0395 67.6484ZM82.0395 81.4397C79.435 81.4397 77.3041 79.2997 77.3041 76.6841C77.3041 74.0685 79.435 71.9285 82.0395 71.9285C84.6439 71.9285 86.7748 74.0685 86.7748 76.6841C86.7748 79.4186 84.6439 81.4397 82.0395 81.4397Z" fill="#5D5FEF"/>
<path d="M82.0395 68.7188C80.6189 68.7188 79.3166 69.0754 78.1328 69.7888L79.1983 71.691C80.0269 71.2154 80.974 70.9777 82.0395 70.9777C85.3542 70.9777 87.9586 73.5933 87.9586 76.9222C87.9586 77.7544 87.8402 78.4678 87.4851 79.1811L89.0241 80.7267C89.616 79.5378 89.9711 78.23 89.9711 76.9222C90.0895 72.2855 86.538 68.7188 82.0395 68.7188Z" fill="#F2F2F2" stroke="#5D5FEF"/>
</g>
<defs>
<clipPath id="clip0_413_2534">
<rect width="123" height="90" fill="white"/>
</clipPath>
</defs>
</svg>
