<svg width="104" height="96" viewBox="0 0 104 96" fill="none" xmlns="http://www.w3.org/2000/svg">
<g clip-path="url(#clip0_413_2613)">
<path d="M99.6974 78.9798H86.5438C84.2081 78.9798 82.2411 77.0206 82.2411 74.6941V68.3267C82.2411 66.0002 84.2081 64.041 86.5438 64.041H99.6974C102.033 64.041 104 66.0002 104 68.3267V74.6941C104 77.0206 102.033 78.9798 99.6974 78.9798Z" fill="#F2F2F2"/>
<path d="M6.26947 36.8569L26.3073 25.3467L46.3451 36.8569V59.9997L26.3073 71.5099L6.26947 59.9997V36.8569Z" fill="#F2F2F2"/>
<path d="M21.3901 67.8372C21.1442 67.8372 20.8983 67.8372 20.7754 67.7147L0 55.8372V31.225L20.7754 19.3474C21.3901 18.9801 22.1277 19.225 22.4965 19.8372C22.8652 20.4494 22.6194 21.1841 22.0047 21.5515L2.58156 32.6943V54.3678L22.0047 65.5107C22.6194 65.878 22.8652 66.6127 22.4965 67.2249C22.2506 67.7147 21.8818 67.8372 21.3901 67.8372Z" fill="#5D5FEF"/>
<path d="M21.3901 44.8163C21.1442 44.8163 20.8983 44.8163 20.7754 44.6939L0.614649 33.0612C-8.66875e-06 32.6939 -0.245872 31.9592 0.122923 31.347C0.491717 30.7347 1.22931 30.4898 1.84396 30.8572L21.8818 42.3674C22.4964 42.7347 22.7423 43.4694 22.3735 44.0817C22.2506 44.5715 21.8818 44.8163 21.3901 44.8163Z" fill="#5D5FEF"/>
<path d="M24.5863 23.5107C24.3404 23.5107 24.0946 23.5107 23.9716 23.3882L20.7754 21.5515C20.1608 21.1841 19.9149 20.4494 20.2837 19.8372C20.6525 19.225 21.3901 18.9801 22.0047 19.3474L25.2009 21.1841C25.8156 21.5515 26.0615 22.2862 25.6927 22.8984C25.4468 23.2658 25.078 23.5107 24.5863 23.5107Z" fill="#5D5FEF"/>
<path d="M33.6832 28.7756C33.4374 28.7756 33.1915 28.7756 33.0686 28.6532L28.5201 26.0818C27.9054 25.7144 27.6596 24.9797 28.0284 24.3675C28.3972 23.7552 29.1348 23.5103 29.7494 23.8777L34.2979 26.4491C34.9125 26.8165 35.1584 27.5511 34.7896 28.1634C34.5437 28.5307 34.175 28.7756 33.6832 28.7756Z" fill="#5D5FEF"/>
<path d="M41.4279 36.8574C40.6903 36.8574 40.0757 36.2451 40.0757 35.5104V32.5717L37.4941 31.1023C36.8794 30.7349 36.6336 30.0002 37.0024 29.388C37.3712 28.7757 38.1088 28.5308 38.7234 28.8982L42.5343 31.1023V35.5104C42.7802 36.3676 42.1655 36.8574 41.4279 36.8574Z" fill="#5D5FEF"/>
<path d="M41.4279 47.3879C40.6903 47.3879 40.0756 46.7756 40.0756 46.041V40.7756C40.0756 40.041 40.6903 39.4287 41.4279 39.4287C42.1655 39.4287 42.7801 40.041 42.7801 40.7756V46.041C42.7801 46.7756 42.1655 47.3879 41.4279 47.3879Z" fill="#5D5FEF"/>
<path d="M38.2317 58.1637C37.74 58.1637 37.3712 57.9188 37.1253 57.5514C36.7565 56.9392 37.0024 56.2045 37.617 55.8371L40.1986 54.3677V51.429C40.1986 50.6943 40.8132 50.082 41.5508 50.082C42.2884 50.082 42.9031 50.6943 42.9031 51.429V55.8371L39.0922 58.0412C38.7234 58.1637 38.4775 58.1637 38.2317 58.1637Z" fill="#5D5FEF"/>
<path d="M29.1348 63.429C28.643 63.429 28.2742 63.1841 28.0284 62.8167C27.6596 62.2045 27.9054 61.4698 28.5201 61.1024L33.0686 58.531C33.6832 58.1636 34.4208 58.4085 34.7896 59.0208C35.1584 59.633 34.9125 60.3677 34.2979 60.7351L29.7494 63.3065C29.6265 63.429 29.3806 63.429 29.1348 63.429Z" fill="#5D5FEF"/>
<path d="M21.3901 67.8368C20.8983 67.8368 20.5296 67.5919 20.2837 67.2246C19.9149 66.6123 20.1608 65.8777 20.7754 65.5103L23.9716 63.6736C24.5863 63.3062 25.3239 63.5511 25.6927 64.1634C26.0615 64.7756 25.8156 65.5103 25.2009 65.8777L22.0047 67.7144C21.8818 67.8368 21.6359 67.8368 21.3901 67.8368Z" fill="#5D5FEF"/>
<path d="M22.3735 44.2041C21.8818 44.2041 21.513 43.9592 21.2671 43.5919C20.8984 42.9796 21.1442 42.2449 21.7589 41.8776L28.1513 38.2041C28.766 37.8368 29.5036 38.0817 29.8723 38.6939C30.2411 39.3061 29.9953 40.0408 29.3806 40.4082L22.9882 44.0817C22.7423 44.2041 22.4965 44.2041 22.3735 44.2041ZM35.0355 36.8572C34.5437 36.8572 34.175 36.6123 33.9291 36.2449C33.5603 35.6327 33.8062 34.898 34.4208 34.5306L40.8132 30.8572C41.4279 30.4898 42.1655 30.7347 42.5343 31.347C42.9031 31.9592 42.6572 32.6939 42.0426 33.0612L35.6501 36.7347C35.5272 36.8572 35.2813 36.8572 35.0355 36.8572Z" fill="#5D5FEF"/>
<path d="M66.2601 13.2243H21.3901C20.6525 13.2243 20.0378 12.612 20.0378 11.8773C20.0378 11.1426 20.6525 10.6528 21.3901 10.6528H66.2601C66.9977 10.6528 67.6123 11.2651 67.6123 11.9998C67.6123 12.7345 66.9977 13.2243 66.2601 13.2243Z" fill="#3624B5"/>
<path d="M73.1442 83.2651H21.3901C20.6525 83.2651 20.0378 82.6528 20.0378 81.9181C20.0378 81.1834 20.6525 80.6936 21.3901 80.6936L70.5627 80.8161V58.8977C70.5627 58.163 71.1773 57.5508 71.9149 57.5508C72.6525 57.5508 73.2672 58.163 73.2672 58.8977V83.2651H73.1442Z" fill="#3624B5"/>
<path d="M21.3901 57.9184C20.6525 57.9184 20.0378 57.3061 20.0378 56.5714V6.36735C20.0378 2.81633 22.8653 0 26.4303 0H66.6289C70.1939 0 73.0213 2.81633 73.0213 6.36735V20.3265C73.0213 21.0612 72.4066 21.6735 71.669 21.6735C70.9315 21.6735 70.3168 21.0612 70.3168 20.3265V6.36735C70.3168 4.28571 68.5958 2.57143 66.5059 2.57143H26.5532C24.4634 2.57143 22.7423 4.28571 22.7423 6.36735V56.6939C22.7423 57.3061 22.1277 57.9184 21.3901 57.9184Z" fill="#3624B5"/>
<path d="M66.7518 95.9999H26.5532C22.9882 95.9999 20.1608 93.1836 20.1608 89.6326V72.7346C20.1608 71.9999 20.7754 71.3877 21.513 71.3877C22.2506 71.3877 22.8653 71.9999 22.8653 72.7346V89.6326C22.8653 91.7142 24.5863 93.4285 26.6761 93.4285H66.8747C68.9646 93.4285 70.6856 91.7142 70.6856 89.6326V82.0408C70.6856 81.3061 71.3002 80.6938 72.0378 80.6938C72.7754 80.6938 73.3901 81.3061 73.3901 82.0408V89.6326C73.1442 93.1836 70.3168 95.9999 66.7518 95.9999Z" fill="#3624B5"/>
<path d="M52 89.5103H41.5508C40.8132 89.5103 40.1985 88.898 40.1985 88.1633C40.1985 87.4286 40.8132 86.8164 41.5508 86.8164H52C52.7376 86.8164 53.3522 87.4286 53.3522 88.1633C53.3522 88.898 52.7376 89.5103 52 89.5103Z" fill="#3624B5"/>
<path d="M88.0189 53.8771H61.3428C56.0568 53.8771 51.7542 49.5914 51.7542 44.3261V28.6526C51.7542 23.3873 56.0568 19.1016 61.3428 19.1016H88.0189C93.305 19.1016 97.6076 23.3873 97.6076 28.6526V44.2036C97.6076 49.5914 93.305 53.8771 88.0189 53.8771ZM61.3428 21.673C57.409 21.673 54.3357 24.8567 54.3357 28.6526V44.2036C54.3357 48.122 57.5319 51.1832 61.3428 51.1832H88.0189C91.9527 51.1832 95.026 47.9995 95.026 44.2036V28.6526C95.026 24.7342 91.8298 21.673 88.0189 21.673H61.3428Z" fill="#3624B5"/>
<path d="M37.617 46.6527C37.1253 46.6527 36.7565 46.4078 36.5106 46.0405C36.1418 45.4283 36.3877 44.6936 37.0023 44.3262L52.2458 35.3874C52.8605 35.0201 53.5981 35.265 53.9669 35.8772C54.3357 36.4895 54.0898 37.2242 53.4752 37.5915L38.2317 46.5303C37.9858 46.6527 37.7399 46.6527 37.617 46.6527Z" fill="#3624B5"/>
<path d="M96.0094 77.7547H82.8558C79.7825 77.7547 77.2009 75.3057 77.2009 72.1221V65.7547C77.2009 62.6935 79.6596 60.1221 82.8558 60.1221H96.0094C99.0827 60.1221 101.664 62.5711 101.664 65.7547V72.2445C101.664 75.3057 99.0827 77.7547 96.0094 77.7547ZM82.8558 62.9384C81.1347 62.9384 79.9054 64.2853 79.9054 65.8772V72.2445C79.9054 73.8364 81.2577 75.1833 82.8558 75.1833H96.0094C97.7305 75.1833 98.9598 73.8364 98.9598 72.2445V65.8772C98.9598 64.2853 97.6075 62.9384 96.0094 62.9384H82.8558Z" fill="#3624B5"/>
</g>
<defs>
<clipPath id="clip0_413_2613">
<rect width="104" height="96" fill="white"/>
</clipPath>
</defs>
</svg>
