<svg width="124" height="125" viewBox="0 0 124 125" fill="none" xmlns="http://www.w3.org/2000/svg">
<path d="M114.028 25.4458H77.3057L60.9004 9V25.4458H55.0955C50.4263 25.4458 46.5143 28.6084 45.3786 32.9096C45.1262 33.6687 45 34.5542 45 35.4398V40.3735V58.2108H70.6174C76.1699 58.2108 80.5867 62.7651 80.5867 68.2048V72H100.147H113.397H114.028C119.581 72 123.997 67.4458 123.997 62.006V35.5663C124.124 30 119.581 25.4458 114.028 25.4458Z" fill="#F2F2F2"/>
<path fill-rule="evenodd" clip-rule="evenodd" d="M53.9682 0L72.3284 18.2143H108.655C114.979 18.2143 120 23.3434 120 29.4689V55.7454C120 62.0185 114.83 67 108.655 67H86.097C85.3608 67 84.764 66.408 84.764 65.6776C84.764 64.9473 85.3608 64.3553 86.097 64.3553H108.655C113.38 64.3553 117.334 60.5361 117.334 55.7454V29.4689C117.334 24.7822 113.484 20.8591 108.655 20.8591H71.2242L56.6341 6.38498V20.8591H49.4715C45.3985 20.8591 41.9905 23.5874 41.0017 27.2928L40.9984 27.3053L40.9948 27.3177C40.7684 28.1039 40.6659 28.7346 40.6659 29.4689V52.4765C40.6659 53.2069 40.0691 53.7989 39.333 53.7989C38.5968 53.7989 38 53.2069 38 52.4765V29.4689C38 28.4474 38.1497 27.5725 38.4279 26.6035C39.7248 21.7661 44.171 18.2143 49.4715 18.2143H53.9682V0Z" fill="#5D5FEF"/>
<path d="M95 34H67V38H95V34Z" fill="#5D5FEF"/>
<path d="M83 31H79V36H83V31Z" fill="#5D5FEF"/>
<path d="M69 56V52.2048C75.3804 52.2048 80.0429 49.1687 82.865 43.3494C85.0736 38.7952 85.319 35.6325 85.319 35.506L89 35C89 35.253 88.7546 39.6807 86.1779 44.994C82.6196 52.2048 76.7301 56 69 56Z" fill="#5D5FEF"/>
<path d="M92 56C78.5806 56 73.6774 46.0519 72 40.0074L75.7419 39C77.4194 45.0444 81.5484 52.2222 92 52.2222V56Z" fill="#5D5FEF"/>
<path fill-rule="evenodd" clip-rule="evenodd" d="M11.3623 59.6842C6.63073 59.6842 2.67006 63.5604 2.67006 68.4226V95.0912C2.67006 99.8479 6.52579 103.83 11.3623 103.83H48.8513L63.464 118.52V103.83H70.6377C74.7243 103.83 78.1133 101.059 78.9846 97.3359L78.9919 97.305L79.0005 97.2745C79.2273 96.4767 79.3299 95.8365 79.3299 95.0912V68.4226C79.3299 63.6659 75.4742 59.6842 70.6377 59.6842H11.3623ZM0 68.4226C0 62.0559 5.17813 57 11.3623 57H70.6377C76.9708 57 82 62.2056 82 68.4226V95.0912C82 96.1217 81.8519 97.0052 81.5764 97.9817C80.4054 102.92 75.9326 106.514 70.6377 106.514H66.134V125L47.7454 106.514H11.3623C5.02922 106.514 0 101.308 0 95.0912V68.4226Z" fill="#3624B5"/>
<path d="M43.1156 85.0714L40.3719 77.2908C40.1106 76.7806 39.9799 76.2704 39.7186 75.5051C39.4573 74.8673 39.3266 74.102 39.0653 73.3367C38.804 74.102 38.6734 74.8673 38.4121 75.5051C38.1508 76.1429 38.0201 76.7806 37.7588 77.2908L35.0151 85.0714H43.1156ZM52 93.8725H47.4271C46.9045 93.8725 46.5126 93.7449 46.1206 93.4898C45.8593 93.2347 45.598 92.9796 45.3367 92.5969L43.7688 88.2602H33.9699L32.6633 92.7245C32.5327 93.1071 32.2714 93.3622 32.0101 93.6173C31.7487 93.8724 31.2261 94 30.7035 94H26L35.9296 69H42.0704L52 93.8725Z" fill="#3624B5"/>
</svg>
