<svg width="90" height="109" viewBox="0 0 90 109" fill="none" xmlns="http://www.w3.org/2000/svg">
<path d="M5.02724 61.9514C4.29155 61.9514 3.67847 61.3356 3.67847 60.5966V18.7209C3.67847 15.2723 6.62125 12.3164 10.0545 12.3164H33.4741C34.2098 12.3164 34.8229 12.9322 34.8229 13.6712C34.8229 14.4102 34.2098 15.026 33.4741 15.026H10.0545C7.97002 15.026 6.2534 16.7503 6.2534 18.8441V60.7198C6.2534 61.3356 5.76294 61.9514 5.02724 61.9514Z" fill="#3624B5"/>
<path d="M50.2725 109H10.0545C6.49863 109 3.67847 106.167 3.67847 102.595V89.0473C3.67847 88.3083 4.29155 87.6925 5.02724 87.6925C5.76294 87.6925 6.37601 88.3083 6.37601 89.0473V102.595C6.37601 104.689 8.09264 106.413 10.1771 106.413H50.2725C52.3569 106.413 54.0736 104.689 54.0736 102.595V65.2767C54.0736 64.5377 54.6866 63.9219 55.4223 63.9219C56.158 63.9219 56.7711 64.5377 56.7711 65.2767V102.595C56.6485 106.044 53.7057 109 50.2725 109Z" fill="#3624B5"/>
<path d="M35.436 102.349H25.0136C24.2779 102.349 23.6649 101.733 23.6649 100.994C23.6649 100.255 24.2779 99.6396 25.0136 99.6396H35.436C36.1717 99.6396 36.7847 100.255 36.7847 100.994C36.7847 101.733 36.1717 102.349 35.436 102.349Z" fill="#3624B5"/>
<path d="M56.6485 96.1911L3.67847 96.0679V89.0476C3.67847 88.3086 4.29155 87.6927 5.02724 87.6927C5.76294 87.6927 6.37601 88.3086 6.37601 89.0476V93.4814L54.1962 93.6046V62.4442C54.1962 61.7052 54.8093 61.0894 55.5449 61.0894C56.2806 61.0894 56.8937 61.7052 56.8937 62.4442V96.1911H56.6485Z" fill="#3624B5"/>
<path d="M4.90462 63.4295C4.29155 63.4295 3.67847 62.8137 3.67847 62.0747V23.0317H33.4741C34.2098 23.0317 34.8229 23.6476 34.8229 24.3865C34.8229 25.1255 34.2098 25.7413 33.4741 25.7413H6.2534V62.321C6.2534 62.8137 5.64032 63.4295 4.90462 63.4295Z" fill="#3624B5"/>
<path d="M37.3978 76.115L24.4006 89.1704C21.5804 92.0031 16.921 92.0031 14.1008 89.1704L7.23434 82.2732C4.41418 79.4404 4.41418 74.7602 7.23434 71.9274L20.2316 58.8721L37.3978 76.115Z" fill="white"/>
<path d="M88.2834 52.3445C86.1989 54.4383 82.7657 54.4383 80.5586 52.3445L46.7166 18.2281C44.6321 16.1343 44.6321 12.6857 46.7166 10.4688C48.8011 8.37499 52.2343 8.37499 54.4414 10.4688L88.2834 44.5852C90.4905 46.6789 90.4905 50.2507 88.2834 52.3445Z" fill="white"/>
<path d="M33.7193 76.731L14.7139 57.6406L28.2016 44.0926C36.5395 35.7175 40.218 16.6271 40.218 16.3808L40.7084 13.9175L78.842 52.2214H75.7766C58.2425 52.2214 47.0845 63.3062 46.9619 63.4293L33.7193 76.731ZM18.3924 57.6406L33.7193 73.0361L45.1226 61.5819C45.6131 61.0892 56.0354 50.8666 72.8338 49.7582L42.3025 19.2135C41.0763 24.7559 37.2752 38.7966 30.0409 45.9401L18.3924 57.6406Z" fill="#3624B5"/>
<path d="M52.8474 95.9446L52.4796 95.5751C51.2534 95.5751 50.0272 95.6983 48.9237 95.6983C45.9809 95.8214 42.9155 95.9446 39.8501 95.5751H39.3597L25.2589 81.4113L33.5967 73.0361L53.4605 92.9887H54.0736L54.564 93.6045L56.158 95.6983H53.9509C53.8283 95.8214 53.5831 95.9446 53.2153 95.9446H52.8474ZM40.5858 93.1118C43.2834 93.3582 45.9809 93.235 48.8011 93.1118C49.1689 93.1118 49.5368 93.1118 50.0272 93.1118L33.7193 76.731L28.9373 81.5344L40.5858 93.1118Z" fill="#3624B5"/>
<path d="M42.7929 85.8452L31.8801 74.8836L42.4251 64.2915L48.3106 70.2034C49.6594 71.5582 50.3951 73.4056 50.3951 75.2531C50.3951 77.2237 49.6594 78.948 48.3106 80.3028L42.7929 85.8452ZM35.5586 74.8836L42.9155 82.2734L46.594 78.5785C47.4523 77.7164 47.9428 76.6079 47.9428 75.3762C47.9428 74.1446 47.4523 73.0361 46.594 72.174L42.5477 68.1096L35.5586 74.8836Z" fill="#3624B5"/>
<path d="M12.9973 79.5638C12.6294 79.5638 12.3842 79.4406 12.139 79.1943C11.6485 78.7016 11.6485 77.8395 12.139 77.3468L17.0436 72.4203C17.5341 71.9276 18.3924 71.9276 18.8828 72.4203C19.3733 72.9129 19.3733 73.7751 18.8828 74.2677L13.9782 79.1943C13.6104 79.4406 13.3651 79.5638 12.9973 79.5638Z" fill="#5D5FEF"/>
<path d="M15.5722 91.3876C13.3651 91.3876 11.158 90.5254 9.44142 88.8011L2.57493 81.7808C0.980926 80.1796 0 77.9627 0 75.6226C0 73.2825 0.858311 71.1887 2.57493 69.4644L16.4305 55.5469L35.5586 74.8836L21.5804 88.8011C19.9864 90.5254 17.7793 91.3876 15.5722 91.3876ZM16.4305 59.365L4.29155 71.435C3.18801 72.5435 2.57493 74.1446 2.57493 75.7457C2.57493 77.3469 3.18801 78.8248 4.29155 80.0565L11.158 87.0768C13.4877 89.4169 17.2888 89.4169 19.6185 87.0768L31.6349 75.0068L16.4305 59.365Z" fill="#5D5FEF"/>
<path d="M79.5777 53.8226C77.7384 53.8226 76.1444 53.0836 74.7956 51.852L40.8311 17.7356C38.2561 15.1492 38.2561 10.8384 40.8311 8.12882C42.0572 6.89719 43.7738 6.1582 45.6131 6.1582C47.4523 6.1582 49.0463 6.89719 50.3951 8.12882L84.3597 42.2452C85.5858 43.4768 86.3215 45.2011 86.3215 47.0486C86.3215 48.8961 85.5858 50.4972 84.3597 51.852C83.1335 53.0836 81.4169 53.8226 79.5777 53.8226ZM45.6131 8.74464C44.5095 8.74464 43.406 9.2373 42.6703 9.97628C41.0763 11.5774 41.0763 14.287 42.6703 15.8881L76.6349 50.0045C78.2289 51.6057 80.9264 51.6057 82.5204 50.0045C83.2561 49.2655 83.7466 48.1571 83.7466 47.0486C83.7466 45.9401 83.2561 44.8316 82.5204 44.0927L48.5559 9.97628C47.8202 9.2373 46.7166 8.74464 45.6131 8.74464Z" fill="#5D5FEF"/>
<path d="M61.921 13.3017C61.1853 13.3017 60.5722 12.6859 60.5722 11.9469V1.3548C60.5722 0.615819 61.1853 0 61.921 0C62.6567 0 63.2697 0.615819 63.2697 1.3548V12.0701C63.1471 12.6859 62.5341 13.3017 61.921 13.3017Z" fill="#5D5FEF"/>
<path d="M70.9946 21.061C70.6267 21.061 70.3815 20.9379 70.1362 20.6915C69.6458 20.1989 69.6458 19.3367 70.1362 18.8441L79.3324 9.6068C79.8229 9.11414 80.6812 9.11414 81.1717 9.6068C81.6621 10.0995 81.6621 10.9616 81.1717 11.4543L71.9755 20.6915C71.7302 20.9379 71.3624 21.061 70.9946 21.061Z" fill="#5D5FEF"/>
<path d="M88.6512 28.6974H78.4741C77.7384 28.6974 77.1253 28.0816 77.1253 27.3426C77.1253 26.6036 77.7384 25.9878 78.4741 25.9878H88.6512C89.3869 25.9878 90 26.6036 90 27.3426C90 28.0816 89.3869 28.6974 88.6512 28.6974Z" fill="#5D5FEF"/>
</svg>
