<svg width="115" height="101" viewBox="0 0 115 101" fill="none" xmlns="http://www.w3.org/2000/svg">
<path d="M87.8286 93.4793H51.8691C48.5554 93.4793 45.8691 90.793 45.8691 87.4793V70.3956V60.8862C45.8691 57.5725 48.5554 54.8862 51.8691 54.8862H87.5881H109C112.314 54.8862 115 57.5725 115 60.8862V87.4793C115 90.793 112.314 93.4793 109 93.4793H105.021" fill="#F2F2F2"/>
<path fill-rule="evenodd" clip-rule="evenodd" d="M8.11753 2.52911C4.98305 2.52911 2.52911 5.07437 2.52911 8.11753V70.6359C2.52911 73.7704 5.07437 76.2243 8.11753 76.2243H41.0599C41.7583 76.2243 42.3245 76.7905 42.3245 77.4889C42.3245 78.1873 41.7583 78.7535 41.0599 78.7535H8.11753C3.70657 78.7535 0 75.196 0 70.6359V8.11753C0 3.70657 3.55744 0 8.11753 0H87.1071C91.5181 0 95.2247 3.55745 95.2247 8.11753V48.8747C95.2247 49.5731 94.6585 50.1393 93.9601 50.1393C93.2617 50.1393 92.6955 49.5731 92.6955 48.8747V8.11753C92.6955 4.98305 90.1503 2.52911 87.1071 2.52911H8.11753Z" fill="#5D5FEF"/>
<path fill-rule="evenodd" clip-rule="evenodd" d="M0.120361 15.5717C0.120361 14.8733 0.686522 14.3071 1.38492 14.3071H93.9602C94.6586 14.3071 95.2248 14.8733 95.2248 15.5717C95.2248 16.2701 94.6586 16.8362 93.9602 16.8362H1.38492C0.686522 16.8362 0.120361 16.2701 0.120361 15.5717Z" fill="#5D5FEF"/>
<path fill-rule="evenodd" clip-rule="evenodd" d="M8.1748 8.95938C8.1748 8.26098 8.74097 7.69482 9.43936 7.69482H56.5686C57.267 7.69482 57.8332 8.26098 57.8332 8.95938C57.8332 9.65777 57.267 10.2239 56.5686 10.2239H9.43936C8.74097 10.2239 8.1748 9.65777 8.1748 8.95938Z" fill="#5D5FEF"/>
<path fill-rule="evenodd" clip-rule="evenodd" d="M36.9766 64.3838C36.9766 63.6799 37.5471 63.1094 38.251 63.1094H43.0601C43.7639 63.1094 44.3345 63.6799 44.3345 64.3838C44.3345 65.0876 43.7639 65.6582 43.0601 65.6582H38.251C37.5471 65.6582 36.9766 65.0876 36.9766 64.3838Z" fill="#5D5FEF"/>
<path fill-rule="evenodd" clip-rule="evenodd" d="M22.2266 64.3838C22.2266 63.6799 22.7971 63.1094 23.501 63.1094H25.8755C26.5793 63.1094 27.1499 63.6799 27.1499 64.3838C27.1499 65.0876 26.5793 65.6582 25.8755 65.6582H23.501C22.7971 65.6582 22.2266 65.0876 22.2266 64.3838ZM29.3501 64.3838C29.3501 63.6799 29.9206 63.1094 30.6245 63.1094H32.999C33.7028 63.1094 34.2734 63.6799 34.2734 64.3838C34.2734 65.0876 33.7028 65.6582 32.999 65.6582H30.6245C29.9206 65.6582 29.3501 65.0876 29.3501 64.3838Z" fill="#5D5FEF"/>
<path fill-rule="evenodd" clip-rule="evenodd" d="M12.5654 58.3003C13.2693 58.3003 13.8398 58.8709 13.8398 59.5747V63.1094H17.3745C18.0784 63.1094 18.6489 63.68 18.6489 64.3838C18.6489 65.0877 18.0784 65.6582 17.3745 65.6582H12.5654C11.8616 65.6582 11.291 65.0877 11.291 64.3838V59.5747C11.291 58.8709 11.8616 58.3003 12.5654 58.3003Z" fill="#5D5FEF"/>
<path fill-rule="evenodd" clip-rule="evenodd" d="M12.5654 36.9766C13.2693 36.9766 13.8398 37.5471 13.8398 38.251V41.7376C13.8398 42.4414 13.2693 43.012 12.5654 43.012C11.8616 43.012 11.291 42.4414 11.291 41.7376V38.251C11.291 37.5471 11.8616 36.9766 12.5654 36.9766ZM12.5654 47.4364C13.2693 47.4364 13.8398 48.0069 13.8398 48.7108V52.1974C13.8398 52.9012 13.2693 53.4718 12.5654 53.4718C11.8616 53.4718 11.291 52.9012 11.291 52.1974V48.7108C11.291 48.0069 11.8616 47.4364 12.5654 47.4364Z" fill="#5D5FEF"/>
<path fill-rule="evenodd" clip-rule="evenodd" d="M11.291 26.873C11.291 26.1692 11.8616 25.5986 12.5654 25.5986H17.3745C18.0784 25.5986 18.6489 26.1692 18.6489 26.873C18.6489 27.5769 18.0784 28.1475 17.3745 28.1475H13.8398V31.6822C13.8398 32.386 13.2693 32.9566 12.5654 32.9566C11.8616 32.9566 11.291 32.386 11.291 31.6822V26.873Z" fill="#5D5FEF"/>
<path fill-rule="evenodd" clip-rule="evenodd" d="M24.7571 26.873C24.7571 26.1692 25.3277 25.5986 26.0315 25.5986H29.999C30.7028 25.5986 31.2734 26.1692 31.2734 26.873C31.2734 27.5769 30.7028 28.1475 29.999 28.1475H26.0315C25.3277 28.1475 24.7571 27.5769 24.7571 26.873ZM36.6596 26.873C36.6596 26.1692 37.2302 25.5986 37.934 25.5986H45.8691C46.5729 25.5986 47.1435 26.1692 47.1435 26.873C47.1435 27.5769 46.5729 28.1475 45.8691 28.1475H37.934C37.2302 28.1475 36.6596 27.5769 36.6596 26.873ZM52.5297 26.873C52.5297 26.1692 53.1002 25.5986 53.8041 25.5986H61.7391C62.443 25.5986 63.0135 26.1692 63.0135 26.873C63.0135 27.5769 62.443 28.1475 61.7391 28.1475H53.8041C53.1002 28.1475 52.5297 27.5769 52.5297 26.873ZM68.3997 26.873C68.3997 26.1692 68.9703 25.5986 69.6741 25.5986H73.6417C74.3455 25.5986 74.9161 26.1692 74.9161 26.873C74.9161 27.5769 74.3455 28.1475 73.6417 28.1475H69.6741C68.9703 28.1475 68.3997 27.5769 68.3997 26.873Z" fill="#5D5FEF"/>
<path fill-rule="evenodd" clip-rule="evenodd" d="M76.6953 26.873C76.6953 26.1692 77.2659 25.5986 77.9697 25.5986H82.7788C83.4827 25.5986 84.0532 26.1692 84.0532 26.873V31.6822C84.0532 32.386 83.4827 32.9566 82.7788 32.9566C82.075 32.9566 81.5044 32.386 81.5044 31.6822V28.1475H77.9697C77.2659 28.1475 76.6953 27.5769 76.6953 26.873Z" fill="#5D5FEF"/>
<path fill-rule="evenodd" clip-rule="evenodd" d="M82.7783 36.791C83.4822 36.791 84.0527 37.3616 84.0527 38.0654V42.8745C84.0527 43.5784 83.4822 44.1489 82.7783 44.1489C82.0745 44.1489 81.5039 43.5784 81.5039 42.8745V38.0654C81.5039 37.3616 82.0745 36.791 82.7783 36.791Z" fill="#5D5FEF"/>
<path fill-rule="evenodd" clip-rule="evenodd" d="M39.7959 51.6104C39.7959 49.4012 41.5868 47.6104 43.7959 47.6104H107.456C109.665 47.6104 111.456 49.4012 111.456 51.6104V84.7325C111.456 86.9417 109.665 88.7325 107.456 88.7325H100.212C99.5141 88.7325 98.9479 88.1664 98.9479 87.468C98.9479 86.7696 99.5141 86.2034 100.212 86.2034H104.927C107.136 86.2034 108.927 84.4126 108.927 82.2034V54.1395C108.927 51.9303 107.136 50.1395 104.927 50.1395H46.325C44.1159 50.1395 42.325 51.9303 42.325 54.1395V82.2034C42.325 84.4126 44.1159 86.2034 46.325 86.2034H83.0199C83.7183 86.2034 84.2845 86.7696 84.2845 87.468C84.2845 88.1664 83.7183 88.7325 83.0199 88.7325H43.7959C41.5868 88.7325 39.7959 86.9417 39.7959 84.7325V51.6104Z" fill="#3624B5"/>
<path fill-rule="evenodd" clip-rule="evenodd" d="M72.752 64.4648L107.274 77.7214L99.8279 85.2963L108.492 93.9603L102.375 100.077L93.7189 91.4205L86.1482 98.9912L72.752 64.4648ZM77.1749 68.8724L87.1028 94.4599L93.7189 87.8438L102.375 96.5002L104.915 93.9603L96.2664 85.3115L102.766 78.6995L77.1749 68.8724Z" fill="#3624B5"/>
</svg>
