<svg width="33" height="33" viewBox="0 0 33 33" fill="none" xmlns="http://www.w3.org/2000/svg">
<path d="M19.3335 32.1677C17.3458 32.1677 15.642 31.7411 13.9382 31.0303C10.3887 29.3242 7.69105 26.6228 5.70331 24.3481C3.28962 21.6467 1.8698 19.2298 0.875933 16.5284C-0.401901 13.2584 -0.259919 9.9884 1.1599 7.14491C2.01179 5.29664 3.57358 4.01708 5.13538 3.02185C6.27124 2.1688 7.54907 2.31098 8.54294 3.16403C10.5307 4.87012 11.6665 6.86056 12.2345 9.27753C12.5184 10.5571 12.0925 11.8367 11.0986 12.6897C10.5307 13.1162 9.96276 13.5428 9.39483 13.9693C8.68492 14.538 8.68493 14.8223 8.82691 15.6754C8.96889 16.1019 9.11087 16.5284 9.39483 16.955C10.6727 18.9454 12.0925 20.6515 13.9382 22.0732C14.0802 22.2154 14.0802 22.2154 14.2222 22.2154C14.3642 22.3576 14.5062 22.3576 14.5062 22.4998C15.5 23.0685 15.926 23.0685 16.7779 22.2154C16.9199 22.0733 17.0618 21.9311 17.0618 21.9311C17.2038 21.6467 17.4878 21.5045 17.6298 21.3624C19.0496 20.0828 20.8953 19.7985 22.4571 20.7937C24.0189 21.7889 25.4388 22.9263 26.7166 24.4902C27.8524 25.912 27.7105 27.4759 26.4326 28.8976C25.8647 29.4663 25.2968 29.8929 24.7289 30.4616C23.0251 31.7411 20.8953 32.1677 19.3335 32.1677ZM6.69718 4.58577C6.5552 4.58577 6.41322 4.58577 6.27124 4.72794C4.85142 5.72317 3.71557 6.71839 3.00566 7.99797C1.8698 10.4149 1.72783 12.9741 2.86368 15.8176C3.71557 18.0924 5.13538 20.3672 7.26511 22.9263C9.11087 24.9167 11.5246 27.4759 14.7901 29.0398C16.21 29.7507 17.6298 30.035 19.3335 30.035C20.3274 30.035 22.1732 29.7507 23.735 28.4711C24.3029 28.0446 24.7289 27.4759 25.2968 27.0494C25.8647 26.4807 25.8647 26.0541 25.4388 25.6276C24.3029 24.348 23.1671 23.2106 21.7472 22.4998C20.8953 22.0733 20.1854 22.2154 19.4755 22.9263C19.3336 23.0685 19.1916 23.2106 19.0496 23.3528C18.9076 23.495 18.7656 23.6372 18.6236 23.7794C17.0618 25.3433 15.5 25.4854 13.6543 24.3481C13.5123 24.2059 13.3703 24.2059 13.3703 24.0637C13.2283 23.9215 13.0864 23.9215 13.0864 23.7794C10.9566 22.2154 9.39483 20.3672 7.97502 18.0924C7.69105 17.5237 7.40709 16.955 7.12313 16.3863C6.5552 14.6802 6.98115 13.4006 8.40097 12.4054C8.96889 11.9789 9.53682 11.5523 9.96276 11.1258C10.5307 10.5571 10.5307 10.1306 10.5307 9.84623C10.1047 7.99796 9.11087 6.29186 7.40709 4.87012C6.98115 4.72794 6.83917 4.58577 6.69718 4.58577Z" fill="#A6A7F6"/>
<path d="M22.1729 11.8368C21.889 11.8368 21.605 11.6946 21.463 11.5524C21.0371 11.1259 21.0371 10.415 21.463 9.98848L25.5805 5.86543C26.0064 5.4389 26.7163 5.4389 27.1423 5.86543C27.5682 6.29195 27.5682 7.00282 27.1423 7.42934L23.0248 11.5524C22.7409 11.8368 22.4569 11.8368 22.1729 11.8368Z" fill="#A6A7F6"/>
<path d="M15.074 7.71366C14.932 7.71366 14.932 7.71366 14.79 7.71366C14.2221 7.57149 13.9381 7.00279 14.0801 6.43409L15.6419 0.747104C15.7839 0.178406 16.3518 -0.105944 16.9198 0.0362309C17.4877 0.178406 17.7716 0.747106 17.6297 1.3158L16.0679 7.00279C15.9259 7.42932 15.4999 7.71366 15.074 7.71366Z" fill="#A6A7F6"/>
<path d="M26.2903 18.9454C25.8644 18.9454 25.4384 18.6611 25.2964 18.0924C25.1545 17.5237 25.4384 16.955 26.0063 16.8128L31.6856 15.2489C32.2535 15.1067 32.8215 15.3911 32.9634 15.9598C33.1054 16.5284 32.8215 17.0971 32.2535 17.2393L26.5743 18.8032C26.4323 18.9454 26.4323 18.9454 26.2903 18.9454Z" fill="#A6A7F6"/>
</svg>
