<svg width="118" height="102" viewBox="0 0 118 102" fill="none" xmlns="http://www.w3.org/2000/svg">
<path d="M102.337 50.6565C102.216 50.6565 101.973 50.6565 101.852 50.6565C102.216 49.3239 102.337 47.9914 102.337 46.5377C102.337 36.9676 94.5775 29.3358 85.1205 29.3358C81.362 29.3358 77.9671 30.5472 75.1785 32.4854C70.6925 26.1861 63.4179 22.0674 55.0521 22.0674C41.8366 22.0674 31.0459 32.6066 30.5609 45.6897C29.4697 45.4474 28.4998 45.4474 27.4086 45.4474C17.8304 45.4474 10.192 53.2004 10.192 62.6493C10.192 72.2194 17.9516 79.8512 27.4086 79.8512H102.337C110.46 79.8512 117.008 73.3097 117.008 65.1933C117.008 57.198 110.46 50.6565 102.337 50.6565Z" fill="#F2F2F2"/>
<path d="M55.9009 58.0464C55.6584 58.0464 55.5372 58.0464 55.2947 58.0464C54.5672 58.0464 54.0823 57.4407 54.0823 56.7139C54.0823 55.9871 54.6885 55.5025 55.416 55.5025C61.9631 55.7448 67.5403 50.6569 67.904 44.1153V43.9942L69.2377 43.873H70.5714V44.1153C70.0864 51.8683 63.6605 58.0464 55.9009 58.0464Z" fill="#3624B5"/>
<path d="M4.61486 52.8371C4.25113 52.8371 3.8874 52.716 3.64491 52.4737C1.22004 49.5664 -0.113639 45.9322 0.00760424 42.1768C0.250091 35.1507 5.70605 29.336 12.6169 28.488C12.4957 27.64 12.4957 26.9132 12.6169 26.0652C12.9807 16.2528 21.4677 8.49986 31.2884 8.98442C34.4408 9.10556 37.4719 10.0747 40.1392 11.7706C44.6252 4.25995 52.991 -0.343375 61.7206 0.0200458C72.9962 0.504606 82.5744 8.98442 84.3931 20.1293C84.5143 20.8562 84.0294 21.4619 83.3019 21.583C82.5744 21.7041 81.9682 21.2196 81.847 20.4927C80.2708 10.4381 71.7838 2.92741 61.5993 2.44285C53.2335 2.07943 45.4739 6.68275 41.5941 14.0723L40.8667 15.4048L39.6542 14.4357C37.1081 12.4975 34.1983 11.5284 31.0459 11.4072C22.5589 11.0438 15.4055 17.5854 15.0418 26.0652C15.0418 27.1554 15.0418 28.2457 15.2843 29.336L15.5268 30.7896H14.0719C7.88843 31.0319 2.79621 35.9987 2.55372 42.1768C2.43247 45.3265 3.52367 48.2338 5.58481 50.6566C6.06978 51.2623 6.06978 52.1103 5.46356 52.4737C5.22108 52.716 4.97859 52.8371 4.61486 52.8371Z" fill="#5D5FEF"/>
<path d="M100.276 76.823H25.3475C15.163 76.823 6.79724 68.4643 6.79724 58.2885C6.79724 48.1127 15.163 39.7541 25.3475 39.7541C25.9537 39.7541 26.6812 39.7541 27.2874 39.8752C28.4998 26.5498 39.533 16.374 52.991 16.374C60.9931 16.374 68.5102 20.1294 73.3599 26.3075C76.2698 24.4904 79.5434 23.6424 83.0594 23.6424C93.2439 23.6424 101.61 32.0011 101.61 42.1769C101.61 43.146 101.488 44.1151 101.367 45.0842C109.612 45.5688 116.159 52.4738 116.159 60.9536C116.159 69.6757 109.006 76.823 100.276 76.823ZM25.3475 42.4192C16.4967 42.4192 9.34336 49.5664 9.34336 58.4097C9.34336 67.2529 16.4967 74.4002 25.3475 74.4002H100.276C107.672 74.4002 113.613 68.4643 113.613 61.0747C113.613 53.6852 107.672 47.7493 100.276 47.7493H98.0936L98.4573 46.1745C98.8211 44.9631 98.9423 43.6306 98.9423 42.298C98.9423 33.4548 91.789 26.3075 82.9382 26.3075C79.6646 26.3075 76.391 27.2766 73.7237 29.2149L72.7537 29.9417L72.0263 28.8515C67.6615 22.6733 60.5081 18.918 52.991 18.918C40.3817 18.918 30.1972 28.7303 29.7123 41.3289V42.7826L28.2573 42.5403C27.2874 42.4192 26.3174 42.4192 25.3475 42.4192Z" fill="#3624B5"/>
<path d="M40.9879 67.253H30.8034C30.0759 67.253 29.4697 66.6473 29.4697 65.9204C29.4697 65.1936 30.0759 64.5879 30.8034 64.5879H40.9879C41.7153 64.5879 42.3215 65.1936 42.3215 65.9204C42.3215 66.6473 41.7153 67.253 40.9879 67.253Z" fill="#3624B5"/>
<path d="M28.2574 69.7969C26.1962 69.7969 24.3776 68.101 24.3776 65.9204C24.3776 63.7399 26.075 62.0439 28.2574 62.0439C30.4397 62.0439 32.1371 63.7399 32.1371 65.9204C32.1371 68.101 30.3185 69.7969 28.2574 69.7969ZM28.2574 64.709C27.5299 64.709 26.9237 65.3147 26.9237 66.0416C26.9237 66.7684 27.5299 67.3741 28.2574 67.3741C28.9848 67.3741 29.591 66.7684 29.591 66.0416C29.591 65.3147 28.9848 64.709 28.2574 64.709Z" fill="#3624B5"/>
<path d="M93.85 57.5616H83.6656C82.9381 57.5616 82.3319 56.9559 82.3319 56.229C82.3319 55.5022 82.9381 54.8965 83.6656 54.8965H93.85C94.5775 54.8965 95.1837 55.5022 95.1837 56.229C95.1837 56.9559 94.4563 57.5616 93.85 57.5616Z" fill="#3624B5"/>
<path d="M96.3961 60.1055C94.335 60.1055 92.5164 58.4095 92.5164 56.229C92.5164 54.0485 94.2138 52.3525 96.3961 52.3525C98.5785 52.3525 100.276 54.0485 100.276 56.229C100.276 58.4095 98.4573 60.1055 96.3961 60.1055ZM96.3961 54.8965C95.6687 54.8965 95.0625 55.5022 95.0625 56.229C95.0625 56.9559 95.6687 57.5616 96.3961 57.5616C97.1236 57.5616 97.7298 56.9559 97.7298 56.229C97.7298 55.5022 97.1236 54.8965 96.3961 54.8965Z" fill="#3624B5"/>
<path d="M97.9724 67.253H87.7879C87.0604 67.253 86.4542 66.6473 86.4542 65.9204C86.4542 65.1936 87.0604 64.5879 87.7879 64.5879H97.9724C98.6998 64.5879 99.306 65.1936 99.306 65.9204C99.306 66.6473 98.5786 67.253 97.9724 67.253Z" fill="#3624B5"/>
<path d="M100.518 69.7969C98.4573 69.7969 96.6387 68.101 96.6387 65.9204C96.6387 63.7399 98.3361 62.0439 100.518 62.0439C102.701 62.0439 104.398 63.7399 104.398 65.9204C104.398 68.101 102.58 69.7969 100.518 69.7969ZM100.518 64.709C99.791 64.709 99.1848 65.3147 99.1848 66.0416C99.1848 66.7684 99.791 67.3741 100.518 67.3741C101.246 67.3741 101.852 66.7684 101.852 66.0416C101.852 65.3147 101.246 64.709 100.518 64.709Z" fill="#3624B5"/>
<path d="M48.9901 84.2129H38.8056C38.0781 84.2129 37.4719 83.6072 37.4719 82.8804C37.4719 82.1536 38.0781 81.5479 38.8056 81.5479H48.9901C49.7175 81.5479 50.3237 82.1536 50.3237 82.8804C50.3237 83.6072 49.7175 84.2129 48.9901 84.2129Z" fill="#3624B5"/>
<path d="M36.2594 86.7569C34.1983 86.7569 32.3796 85.0609 32.3796 82.8804C32.3796 80.6999 34.077 79.0039 36.2594 79.0039C38.4418 79.0039 40.1392 80.6999 40.1392 82.8804C40.1392 85.0609 38.4418 86.7569 36.2594 86.7569ZM36.2594 81.669C35.532 81.669 34.9258 82.2747 34.9258 83.0015C34.9258 83.7284 35.532 84.3341 36.2594 84.3341C36.9869 84.3341 37.5931 83.7284 37.5931 83.0015C37.5931 82.2747 36.9869 81.669 36.2594 81.669Z" fill="#3624B5"/>
<path d="M83.0594 89.9061C82.6957 89.9061 82.4532 89.7849 82.2107 89.5426L75.0573 82.3954C74.5724 81.9108 74.5724 81.0628 75.0573 80.5783C75.5423 80.0937 76.391 80.0937 76.876 80.5783L84.0294 87.7255C84.5143 88.2101 84.5143 89.0581 84.0294 89.5426C83.7869 89.7849 83.4231 89.9061 83.0594 89.9061Z" fill="#3624B5"/>
<path d="M84.8781 94.2666C83.9081 94.2666 82.9382 93.9032 82.2107 93.1763C80.7558 91.7227 80.7558 89.2998 82.2107 87.725C83.6656 86.2713 86.0905 86.2713 87.6667 87.725C89.1216 89.1787 89.1216 91.6015 87.6667 93.1763C86.818 93.9032 85.848 94.2666 84.8781 94.2666ZM84.8781 89.1787C84.5143 89.1787 84.2718 89.2998 83.9081 89.5421C83.4231 90.0267 83.4231 90.8747 83.9081 91.3592C84.3931 91.8438 85.2418 91.8438 85.7268 91.3592C86.2117 90.8747 86.2117 90.0267 85.7268 89.5421C85.6055 89.2998 85.2418 89.1787 84.8781 89.1787Z" fill="#3624B5"/>
<path d="M47.5351 97.5379C47.1713 97.5379 46.9288 97.4168 46.6864 97.1745C46.2014 96.6899 46.2014 95.8419 46.6864 95.3574L53.8397 88.2101C54.3247 87.7255 55.1734 87.7255 55.6584 88.2101C56.1434 88.6947 56.1434 89.5426 55.6584 90.0272L48.505 97.1745C48.2625 97.4168 47.8988 97.5379 47.5351 97.5379Z" fill="#3624B5"/>
<path d="M45.7164 101.898C44.7465 101.898 43.7765 101.535 43.0491 100.808C41.5942 99.3545 41.5942 96.9317 43.0491 95.3569C44.504 93.9032 46.9289 93.9032 48.505 95.3569C49.96 96.8105 49.96 99.2333 48.505 100.808C47.7776 101.535 46.6864 101.898 45.7164 101.898ZM45.7164 96.8105C45.3527 96.8105 45.1102 96.9317 44.7465 97.174C44.2615 97.6585 44.2615 98.5065 44.7465 98.9911C45.2315 99.4756 46.0802 99.4756 46.5651 98.9911C47.0501 98.5065 47.0501 97.6585 46.5651 97.174C46.4439 96.9317 46.0802 96.8105 45.7164 96.8105Z" fill="#3624B5"/>
<path d="M63.1755 35.999C63.9029 35.999 64.5092 36.1202 65.1154 36.4836L87.6667 49.2033C88.8791 49.9301 89.7278 51.2627 89.6066 52.7164C89.4853 62.1653 87.0604 89.1795 64.6304 98.2651C64.1454 98.5073 63.6604 98.5073 63.1755 98.5073C62.6905 98.5073 62.2055 98.3862 61.7206 98.2651C39.4117 89.0584 36.8656 62.1653 36.7444 52.7164C36.7444 51.2627 37.4718 49.9301 38.6843 49.2033L61.2356 36.4836C61.8418 36.1202 62.5693 35.999 63.1755 35.999Z" fill="#5D5FEF"/>
<path d="M58.3258 74.4002C55.5372 74.5214 53.3548 72.3409 53.2336 69.7969C53.1123 67.0107 55.2947 64.8302 57.9621 64.8302C60.6294 64.8302 62.8118 66.8896 62.933 69.4335C63.0543 72.0986 60.9931 74.2791 58.3258 74.4002ZM70.6926 67.4952C70.5714 66.8895 70.4501 66.2838 70.3289 65.6781C70.3289 65.557 70.2077 65.4359 69.9652 65.4359C69.1165 65.4359 68.2678 65.3147 67.5403 65.3147C67.4191 65.3147 67.2978 65.1936 67.1766 65.0724C67.0553 64.8302 66.9341 64.5879 66.8128 64.3456C66.8128 64.2245 66.8128 64.1033 66.8128 63.9822C67.1766 63.2553 67.6615 62.6496 68.0253 61.9228C68.0253 61.8017 68.1465 61.8017 68.0253 61.6805C68.0253 61.6805 68.0253 61.5594 67.904 61.5594C67.4191 61.0748 66.8128 60.4691 66.3279 59.8634C66.2066 59.7423 66.0854 59.7423 65.8429 59.7423C65.1154 60.1057 64.5092 60.4691 63.7817 60.9537C63.6605 61.0748 63.418 61.0748 63.2968 60.9537C63.1755 60.8325 62.933 60.8325 62.8118 60.7114C62.6906 60.5903 62.5693 60.4691 62.5693 60.2268C62.5693 59.3789 62.5693 58.652 62.4481 57.804C62.4481 57.6829 62.3268 57.4406 62.2056 57.4406C61.4781 57.3195 60.7507 57.0772 60.0232 56.9561H59.902C59.7807 56.9561 59.6595 57.0772 59.6595 57.1983C59.2957 57.9252 58.932 58.5309 58.5683 59.2577V59.3789C58.447 59.5 58.3258 59.5 58.2045 59.5C57.9621 59.5 57.7196 59.5 57.4771 59.5C57.3558 59.5 57.1133 59.5 57.1133 59.3789C56.6284 58.652 56.1434 58.0463 55.7797 57.4406C55.6584 57.3195 55.5372 57.1983 55.2947 57.3195C54.5672 57.5618 53.8398 57.804 53.1123 58.0463C52.9911 58.0463 52.8698 58.1675 52.8698 58.4097C52.8698 59.2577 52.9911 59.9846 52.9911 60.8325C52.9911 60.9537 52.9911 61.196 52.8698 61.196C52.6273 61.3171 52.3849 61.5594 52.1424 61.6805C52.0211 61.8017 51.7786 61.8017 51.6574 61.6805C50.9299 61.3171 50.2025 61.0748 49.475 60.7114C49.3538 60.5903 49.1113 60.7114 48.99 60.8325C48.5051 61.4382 48.0201 61.9228 47.6564 62.5285C47.5351 62.6496 47.5351 62.7708 47.6564 63.0131C48.1413 63.6188 48.6263 64.2245 49.1113 64.9513C49.2325 65.0724 49.2325 65.3147 49.1113 65.4359C48.99 65.6781 48.8688 66.0416 48.7475 66.2838C48.6263 66.405 48.6263 66.5261 48.3838 66.6473C47.5351 66.7684 46.8077 66.8895 45.9589 67.1318C45.8377 67.1318 45.7165 67.253 45.7165 67.4952C45.7165 67.9798 45.5952 68.5855 45.5952 69.0701C45.5952 69.1912 45.5952 69.4335 45.5952 69.5546V69.6758V69.9181C45.7165 69.9181 45.9589 70.0392 46.0802 70.0392C46.8077 70.2815 47.4139 70.5238 48.0201 70.766C48.1413 70.766 48.2626 70.8872 48.2626 71.1295C48.3838 71.4929 48.3838 71.8563 48.5051 72.3409C48.5051 72.462 48.5051 72.5831 48.3838 72.7043C48.0201 73.0677 47.6564 73.31 47.4139 73.6734C47.1714 73.9157 46.9289 74.158 46.6864 74.4002C46.5652 74.5214 46.5652 74.6425 46.5652 74.7637C46.9289 75.3694 47.1714 75.9751 47.5351 76.7019C47.6564 76.823 47.7776 76.823 47.8988 76.823C48.3838 76.7019 48.7475 76.7019 49.2325 76.5808C49.5963 76.4596 49.96 76.4596 50.2025 76.3385C50.3237 76.3385 50.5662 76.3385 50.6874 76.4596C50.9299 76.823 51.2937 77.0653 51.5361 77.3076C51.6574 77.4287 51.6574 77.5499 51.6574 77.7922C51.5361 78.519 51.2937 79.367 51.0512 80.0938C51.0512 80.215 51.0512 80.4572 51.1724 80.4572C51.7786 80.8207 52.3849 81.1841 52.9911 81.4264C53.1123 81.5475 53.3548 81.5475 53.3548 81.4264C53.8398 80.8207 54.446 80.3361 55.0522 79.7304C55.1735 79.6093 55.4159 79.6093 55.5372 79.6093C55.9009 79.7304 56.2646 79.7304 56.6284 79.8515C56.7496 79.8515 56.8709 79.9727 56.9921 80.215C57.2346 80.9418 57.4771 81.7898 57.7196 82.3955C57.7196 82.5166 57.8408 82.6378 58.0833 82.6378C58.5683 82.6378 59.1745 82.6378 59.6595 82.5166C59.7807 82.5166 60.0232 82.5166 60.1444 82.5166C60.2657 82.5166 60.3869 82.3955 60.5082 82.2743C60.6294 81.7898 60.6294 81.3052 60.8719 80.9418C60.9931 80.5784 60.9931 80.215 61.1144 79.9727C61.1144 79.8515 61.2356 79.7304 61.3569 79.6093C61.7206 79.4881 62.0843 79.367 62.4481 79.2458C62.5693 79.2458 62.6906 79.2458 62.8118 79.367C63.2968 79.7304 63.7817 80.0938 64.2667 80.5784C64.388 80.6995 64.5092 80.8207 64.6304 80.9418C64.7517 81.0629 64.8729 81.0629 64.9942 80.9418C65.6004 80.4572 66.0854 80.0938 66.6916 79.6093C66.8128 79.4881 66.8128 79.367 66.8128 79.1247C66.5703 78.3979 66.2066 77.5499 65.9641 76.9442C65.9641 76.823 65.9641 76.7019 65.9641 76.5808V76.4596C66.0854 76.2173 66.3279 75.9751 66.5703 75.7328C66.6916 75.6116 66.8128 75.6116 66.9341 75.6116C67.7828 75.7328 68.5102 75.7328 69.3589 75.8539C69.4802 75.8539 69.7227 75.8539 69.7227 75.6116C69.9652 74.8848 70.2077 74.2791 70.4501 73.5523C70.4501 73.4311 70.4501 73.1888 70.3289 73.1888C69.6014 72.7043 68.9952 72.2197 68.389 71.7352C68.2678 71.614 68.1465 71.4929 68.1465 71.2506C68.1465 71.0083 68.1465 70.766 68.1465 70.5238C68.1465 70.4026 68.2678 70.1603 68.389 70.1603C69.1165 69.7969 69.7227 69.4335 70.4501 69.1912C70.5714 69.1912 70.6926 69.0701 70.6926 68.9489V68.8278C70.8139 67.8587 70.6926 67.6164 70.6926 67.4952Z" fill="#F2F2F2"/>
<path d="M83.0593 59.1364L81.8469 57.5616C81.7257 57.3193 81.6044 57.077 81.6044 56.8347L81.7257 54.8965L79.7858 54.4119C79.5433 54.4119 79.3008 54.1696 79.1795 53.9274L77.9671 52.3525L76.1484 53.0794C75.906 53.2005 75.6635 53.2005 75.421 53.0794L73.6023 52.3525L72.5111 54.0485C72.3899 54.2908 72.1474 54.4119 71.9049 54.5331L69.965 55.0176L70.0863 56.9559C70.0863 57.1981 70.0863 57.4404 69.8438 57.6827L68.6313 59.2575L69.8438 60.8323C69.965 61.0746 70.0863 61.3169 70.0863 61.5592V63.4974L72.0262 63.982C72.2687 63.982 72.5111 64.2243 72.6324 64.4666L73.7236 66.1625L75.5422 65.4357C75.7847 65.3145 76.0272 65.3145 76.2697 65.4357L78.0883 66.1625L79.1795 64.4666C79.3008 64.2243 79.5433 64.1031 79.7858 63.982L81.7257 63.4974L81.6044 61.5592C81.6044 61.3169 81.6044 61.0746 81.8469 60.8323L83.0593 59.1364ZM75.7847 61.6803C74.3298 61.6803 73.2386 60.5901 73.2386 59.1364C73.2386 57.6827 74.3298 56.5924 75.7847 56.5924C77.2396 56.5924 78.3308 57.6827 78.3308 59.1364C78.3308 60.5901 77.2396 61.6803 75.7847 61.6803Z" fill="#F2F2F2"/>
</svg>
