<svg width="125" height="125" viewBox="0 0 125 125" fill="none" xmlns="http://www.w3.org/2000/svg">
<path d="M47.0993 42.8971V18.7098H35.6732V43.1932C35.6732 47.8332 34.5803 52.3745 32.5931 56.5209L30.606 60.5685C28.6188 64.7149 27.5259 69.3549 27.5259 73.8962V109.832H55.5447V74.2911C55.5447 69.4536 54.3524 64.6162 52.1665 60.2724L50.4775 56.9158C48.1922 52.572 47.0993 47.7345 47.0993 42.8971Z" fill="#F2F2F2"/>
<path d="M97.8709 16.6366H75.5155H60.2144C59.0221 16.6366 58.1279 17.5251 58.1279 18.7098V34.3081C58.1279 34.3081 58.1279 66.097 58.1279 83.0774V89.7906C58.1279 90.9753 59.0221 91.8638 60.2144 91.8638H67.1695H106.217H113.172C114.265 91.8638 115.159 90.9753 115.159 89.8893V83.0774V34.3081L97.8709 16.6366Z" stroke="#3624B5" stroke-width="2.1036" stroke-miterlimit="10" stroke-linecap="round"/>
<path d="M56.8364 106.475H99.1627L106.714 106.277C107.906 106.277 108.9 105.29 108.9 104.106V95.5166" stroke="#3624B5" stroke-width="2.1036" stroke-miterlimit="10" stroke-linecap="round"/>
<path d="M47 46.846C47 46.846 47 35.5915 47 54.0528" stroke="#3624B5" stroke-width="2.1036" stroke-miterlimit="10" stroke-linecap="round"/>
<path d="M54.2531 24.7319H49.2852C47.9936 24.7319 47 25.7192 47 27.0026V38.0596" stroke="#3624B5" stroke-width="2.1036" stroke-miterlimit="10" stroke-linecap="round"/>
<path d="M97.8711 16.5379L115.159 34.2094H100.752C99.1627 34.2094 97.9705 32.926 97.9705 31.4451L97.8711 16.5379Z" stroke="#3624B5" stroke-width="2.104" stroke-miterlimit="10" stroke-linecap="round" stroke-linejoin="round"/>
<path d="M88.3327 30.5566H65.8779V34.3081H88.3327V30.5566Z" stroke="#5D5FEF" stroke-width="2.1036" stroke-miterlimit="10" stroke-linecap="round"/>
<path d="M66.1758 45.5626H107.409" stroke="#3624B5" stroke-width="2.1036" stroke-miterlimit="10" stroke-linecap="round"/>
<path d="M66.1758 51.9796H107.409" stroke="#3624B5" stroke-width="2.1036" stroke-miterlimit="10" stroke-linecap="round"/>
<path d="M66.1758 58.2979H107.409" stroke="#3624B5" stroke-width="2.1036" stroke-miterlimit="10" stroke-linecap="round"/>
<path d="M66.1758 66.4919H107.409" stroke="#3624B5" stroke-width="2.1036" stroke-miterlimit="10" stroke-linecap="round"/>
<path d="M66.1758 72.9089H107.409" stroke="#3624B5" stroke-width="2.1036" stroke-miterlimit="10" stroke-linecap="round"/>
<path d="M66.1758 82.88H91.81" stroke="#5D5FEF" stroke-width="2.1036" stroke-miterlimit="10" stroke-linecap="round"/>
<path d="M42.7275 38.257V14.1685H31.4007V38.6519C31.4007 43.2919 30.3078 47.8332 28.3207 51.9796L26.3335 56.0272C24.3464 60.1736 23.2534 64.8136 23.2534 69.3549V106.179H51.2722V69.8485C51.2722 65.0111 50.08 60.1736 47.8941 55.8298L46.1056 52.3745C43.9198 47.9319 42.7275 43.0945 42.7275 38.257Z" stroke="#3624B5" stroke-width="2.1036" stroke-miterlimit="10" stroke-linecap="round"/>
<path d="M42.7276 14.1685H31.4009V23.9421H42.7276V14.1685Z" stroke="#3624B5" stroke-width="2.1036" stroke-miterlimit="10" stroke-linecap="round"/>
<path d="M44.1187 71.1319H23.353V92.4561H44.1187V71.1319Z" stroke="#3624B5" stroke-width="2.1036" stroke-miterlimit="10" stroke-linecap="round"/>
<path d="M14.9076 78.0426L9.84033 76.9566" stroke="#5D5FEF" stroke-width="2.1036" stroke-miterlimit="10" stroke-linecap="round"/>
<path d="M17.7893 70.737L14.4111 67.874" stroke="#5D5FEF" stroke-width="2.1036" stroke-miterlimit="10" stroke-linecap="round"/>
<path d="M14.9076 85.5455L10.6353 87.1251" stroke="#5D5FEF" stroke-width="2.1036" stroke-miterlimit="10" stroke-linecap="round"/>
<path d="M12.7217 106.475H74.7208" stroke="#3624B5" stroke-width="2.1036" stroke-miterlimit="10" stroke-linecap="round"/>
</svg>
