<svg width="125" height="125" viewBox="0 0 125 125" fill="none" xmlns="http://www.w3.org/2000/svg">
<g clip-path="url(#clip0_209_458)">
<path d="M119.598 28.4658L81.4253 17.9385C77.584 16.8618 73.6226 19.374 72.6623 23.4414L71.5819 27.6284L46.3734 24.8769C42.4121 24.3984 38.8108 27.5088 38.4507 31.6958L37.7305 38.8735H58.6175C62.5789 38.8735 65.82 42.3427 65.82 46.5297V106.822L77.8241 108.138C81.7854 108.617 85.3866 105.506 85.7467 101.319V101.2L100.752 105.387C104.593 106.463 108.554 103.951 109.515 99.8839L124.64 37.9164C125.84 33.7294 123.44 29.5424 119.598 28.4658Z" fill="#F2F2F2"/>
<path d="M8.32031 41.0268C8.32031 36.8398 11.5614 33.3705 15.5228 33.3705H54.8961C58.8574 33.3705 62.0985 36.8398 62.0985 41.0268V105.028C62.0985 109.215 58.8574 112.684 54.8961 112.684H15.5228C11.5614 112.684 8.32031 109.215 8.32031 105.028V46.7689" stroke="#3624B5" stroke-width="2.1036" stroke-miterlimit="10" stroke-linecap="round"/>
<path d="M67.9805 17.9385C68.9408 13.8711 72.9021 11.3589 76.7434 12.4356L114.916 22.9629C118.758 24.0395 121.038 28.2265 120.078 32.2939L104.833 94.381C103.873 98.4483 99.9113 100.961 96.07 99.8839L86.4667 97.252" stroke="#5D5FEF" stroke-width="2.1036" stroke-miterlimit="10" stroke-linecap="round"/>
<path d="M34.4893 28.8246L34.7293 26.1928C35.0895 22.0058 38.6907 18.8955 42.652 19.374L81.7853 23.6806C85.7466 24.1591 88.6276 27.8676 88.2675 32.0546L82.0254 95.6969C81.6652 99.8839 78.064 102.994 74.1027 102.516L66.5401 101.678" stroke="#5D5FEF" stroke-width="2.1036" stroke-miterlimit="10" stroke-linecap="round"/>
<path d="M35.2095 53.7073H52.6154" stroke="#3624B5" stroke-width="2.1036" stroke-miterlimit="10" stroke-linecap="round"/>
<path d="M35.3296 58.6121H48.414" stroke="#3624B5" stroke-width="2.1036" stroke-miterlimit="10" stroke-linecap="round"/>
<path d="M40.7314 87.5621H55.9766" stroke="#3624B5" stroke-width="2.1036" stroke-miterlimit="10" stroke-linecap="round"/>
<path d="M40.7314 92.8258H55.9766" stroke="#3624B5" stroke-width="2.1036" stroke-miterlimit="10" stroke-linecap="round"/>
<path d="M40.7314 98.2091H55.9766" stroke="#3624B5" stroke-width="2.1036" stroke-miterlimit="10" stroke-linecap="round"/>
<path d="M40.7314 103.592H48.6541" stroke="#3624B5" stroke-width="2.1036" stroke-miterlimit="10" stroke-linecap="round"/>
<path d="M35.2095 42.1034H62.0986" stroke="#3624B5" stroke-width="2.1036" stroke-miterlimit="10" stroke-linecap="round"/>
<path d="M32.3283 62.4402V45.5726H24.4056V62.6795C24.4056 65.9095 23.6853 69.1394 22.2449 72.0105L20.9244 74.8816C19.4839 77.7527 18.7637 80.9826 18.7637 84.2126V107.42C18.7637 108.497 19.604 109.454 20.8044 109.454H36.2896C37.37 109.454 38.3303 108.617 38.3303 107.42V84.4518C38.3303 80.9826 37.49 77.633 35.9295 74.6423L34.7291 72.2498C33.0485 69.1394 32.3283 65.7898 32.3283 62.4402Z" fill="#F2F2F2"/>
<path d="M28.487 58.971V42.1034H20.5643V59.2102C20.5643 62.4402 19.844 65.6702 18.4035 68.5413L17.0831 71.4123C15.6426 74.2834 14.9224 77.5134 14.9224 80.7433V103.951C14.9224 105.028 15.7626 105.985 16.9631 105.985H32.4483C33.5287 105.985 34.489 105.148 34.489 103.951V81.1022C34.489 77.633 33.6487 74.2834 32.0882 71.2927L30.8878 68.9001C29.3272 65.7898 28.487 62.4402 28.487 58.971Z" stroke="#5D5FEF" stroke-width="2.1036" stroke-miterlimit="10" stroke-linecap="round"/>
<path d="M28.4871 42.1034H20.5645V48.9222H28.4871V42.1034Z" stroke="#5D5FEF" stroke-width="2.1036" stroke-miterlimit="10" stroke-linecap="round"/>
<path d="M29.5674 81.9396H15.0425V96.8932H29.5674V81.9396Z" stroke="#5D5FEF" stroke-width="2.1036" stroke-miterlimit="10" stroke-linecap="round"/>
<path d="M34.4893 81.1022H56.3367" stroke="#5D5FEF" stroke-width="2.1036" stroke-miterlimit="10" stroke-linecap="round"/>
</g>
<defs>
<clipPath id="clip0_209_458">
<rect width="118" height="103" fill="white" transform="translate(7 11)"/>
</clipPath>
</defs>
</svg>
