<svg width="125" height="125" viewBox="0 0 125 125" fill="none" xmlns="http://www.w3.org/2000/svg">
<g clip-path="url(#clip0_209_437)">
<path d="M100.143 40.2009L96.7145 39.5608L96.5003 34.4399C96.3931 29.8525 92.536 26.332 87.9288 26.5453L41.536 28.1456C36.9288 28.2523 33.3931 32.0929 33.6074 36.6803L33.8217 41.5878L33.1788 41.6944C28.6788 42.4412 25.6788 46.7086 26.4288 51.1893L34.1431 96.7433C34.8931 101.224 39.1788 104.211 43.6788 103.464L70.4645 98.877L89.3217 102.077C93.8217 102.824 98.1074 99.8371 98.8574 95.3564L106.786 49.6957C107.643 45.215 104.643 40.9477 100.143 40.2009Z" fill="#F2F2F2"/>
<path d="M90.6072 29.6392C90.5 25.0518 86.6429 21.5312 82.0358 21.7446L35.6429 23.2381C31.0358 23.3448 27.5 27.1854 27.7143 31.7728L27.8215 36.2536L70.8929 28.8924C75.3929 28.1456 79.6786 31.1327 80.4286 35.6135L88.3572 81.2741C88.4643 81.9142 88.4643 82.5543 88.4643 83.1944C90.8215 81.7009 92.3215 79.0338 92.2143 76.0466L90.6072 29.6392Z" stroke="#3624B5" stroke-width="2.1036" stroke-miterlimit="10" stroke-linecap="round"/>
<path d="M95.3215 33.1598L90.7144 32.413L92.2144 75.94C92.3215 78.9271 90.8215 81.5942 88.4644 83.0878C88.2501 86.8217 85.4644 90.0222 81.6072 90.6623L70.4644 92.5826L84.7144 95.0364C89.2144 95.7831 93.5001 92.796 94.2501 88.3153L102.179 42.6546C102.821 38.1739 99.8215 34.0132 95.3215 33.1598Z" stroke="#3624B5" stroke-width="2.1036" stroke-miterlimit="10" stroke-linecap="round"/>
<path d="M18.2858 46.1751C17.5358 41.6944 20.5358 37.427 25.0358 36.6802L70.8929 28.7856C75.3929 28.0388 79.6786 31.026 80.4286 35.5067L88.3572 81.1674C89.1072 85.6481 86.1072 89.9154 81.6072 90.6622L35.75 98.5568C31.25 99.3036 26.9643 96.3165 26.2143 91.8358L19.8929 55.8833" fill="#F2F2F2"/>
<path d="M18.2858 46.1751C17.5358 41.6944 20.5358 37.427 25.0358 36.6802L70.8929 28.7856C75.3929 28.0388 79.6786 31.026 80.4286 35.5067L88.3572 81.1674C89.1072 85.6481 86.1072 89.9154 81.6072 90.6622L35.75 98.5568C31.25 99.3036 26.9643 96.3165 26.2143 91.8358L19.8929 55.8833" stroke="#3624B5" stroke-width="2.1036" stroke-miterlimit="10" stroke-linecap="round"/>
<path d="M18.2858 46.1751C17.5358 41.6944 20.5358 37.427 25.0358 36.6802L70.8929 28.7856C75.3929 28.0388 79.6786 31.026 80.4286 35.5067L88.3572 81.1674C89.1072 85.6481 86.1072 89.9154 81.6072 90.6622L35.75 98.5568C31.25 99.3036 26.9643 96.3165 26.2143 91.8358L19.8929 55.8833" stroke="#3624B5" stroke-width="2.1036" stroke-miterlimit="10" stroke-linecap="round"/>
<path d="M47.1074 67.1919L35.2145 69.2189C33.286 69.539 32.0003 71.3526 32.3217 73.3796L34.3574 85.0081C34.6788 86.9284 36.5003 88.2086 38.4288 87.8886L50.3217 85.8616C52.2503 85.5415 53.536 83.7279 53.2145 81.7009L51.286 70.0724C50.8574 68.1521 49.036 66.7652 47.1074 67.1919ZM37.4645 73.4863L46.8931 71.886L48.5003 80.9541L39.0717 82.5544L37.4645 73.4863Z" fill="#5D5FEF"/>
<path d="M43.0356 43.508L31.1428 45.535C29.2142 45.8551 27.9285 47.6687 28.2499 49.6957L30.2856 61.3242C30.6071 63.2445 32.4285 64.5247 34.3571 64.2047L46.2499 62.1777C48.1785 61.8576 49.4642 60.044 49.1428 58.017L47.1071 46.3885C46.7856 44.5749 44.9642 43.188 43.0356 43.508ZM33.3928 49.9091L42.8213 48.3088L44.4285 57.3769L34.9999 58.9772L33.3928 49.9091Z" fill="#5D5FEF"/>
<path d="M66.6071 39.5607L54.6071 41.5877C52.6785 41.9078 51.3928 43.7214 51.7143 45.7484L53.75 57.3769C54.0714 59.2972 55.8928 60.5774 57.8214 60.2574L69.8214 58.2304C71.75 57.9103 73.0357 56.0967 72.7143 54.0697L70.6785 42.4412C70.3571 40.5209 68.5357 39.2407 66.6071 39.5607ZM56.8571 45.8551L66.3928 44.2548L68 53.3229L58.4643 54.9232L56.8571 45.8551Z" fill="#5D5FEF"/>
<path d="M69.9622 67.8475L56.0244 70.2386L56.8431 74.9698L70.7809 72.5786L69.9622 67.8475Z" fill="#5D5FEF"/>
<path d="M74.1038 62.3205L69.1411 63.1719L69.9598 67.903L74.9225 67.0516L74.1038 62.3205Z" fill="#5D5FEF"/>
<path d="M60.1712 64.6899L55.2085 65.5413L56.4456 72.6906L61.4083 71.8392L60.1712 64.6899Z" fill="#5D5FEF"/>
<path d="M75.6956 71.606L70.7329 72.4574L71.5516 77.1886L76.5143 76.3372L75.6956 71.606Z" fill="#5D5FEF"/>
<path d="M62.2988 78.7824L57.6528 79.5795L58.4897 84.4158L63.1356 83.6187L62.2988 78.7824Z" fill="#5D5FEF"/>
<path d="M71.6181 77.1745L66.9722 77.9716L67.809 82.8079L72.455 82.0108L71.6181 77.1745Z" fill="#5D5FEF"/>
<path d="M65.935 71.8492L61.2891 72.6462L62.3624 78.8493L67.0084 78.0523L65.935 71.8492Z" fill="#5D5FEF"/>
</g>
<defs>
<clipPath id="clip0_209_437">
<rect width="90" height="83" fill="white" transform="translate(17.5 21)"/>
</clipPath>
</defs>
</svg>
